<mxfile host="app.diagrams.net" agent="Mozilla/5.0 (Windows NT 10.0; Win64; x64) AppleWebKit/537.36 (KHTML, like Gecko) Chrome/139.0.0.0 Safari/537.36" version="28.1.1" pages="6">
  <diagram name="Conceitual Clinica" id="qNRnan7NgQrvt0Vos0e0">
    <mxGraphModel dx="1603" dy="2034" grid="1" gridSize="10" guides="1" tooltips="1" connect="1" arrows="1" fold="1" page="1" pageScale="1" pageWidth="827" pageHeight="1169" math="0" shadow="0">
      <root>
        <mxCell id="0" />
        <mxCell id="1" parent="0" />
        <mxCell id="uOH3IVwVDu7RFBPPn6ef-9" style="edgeStyle=orthogonalEdgeStyle;rounded=0;orthogonalLoop=1;jettySize=auto;html=1;exitX=1;exitY=0.5;exitDx=0;exitDy=0;entryX=0;entryY=0.5;entryDx=0;entryDy=0;endArrow=none;endFill=0;" parent="1" source="uOH3IVwVDu7RFBPPn6ef-2" target="uOH3IVwVDu7RFBPPn6ef-7" edge="1">
          <mxGeometry relative="1" as="geometry" />
        </mxCell>
        <mxCell id="uOH3IVwVDu7RFBPPn6ef-2" value="&lt;font style=&quot;vertical-align: inherit;&quot; dir=&quot;auto&quot;&gt;&lt;font style=&quot;vertical-align: inherit;&quot; dir=&quot;auto&quot;&gt;&lt;font style=&quot;vertical-align: inherit;&quot; dir=&quot;auto&quot;&gt;&lt;font style=&quot;vertical-align: inherit;&quot; dir=&quot;auto&quot;&gt;&lt;font style=&quot;vertical-align: inherit;&quot; dir=&quot;auto&quot;&gt;&lt;font style=&quot;vertical-align: inherit; font-size: 20px;&quot; dir=&quot;auto&quot;&gt;Médico&lt;/font&gt;&lt;/font&gt;&lt;/font&gt;&lt;/font&gt;&lt;/font&gt;&lt;/font&gt;" style="whiteSpace=wrap;html=1;align=center;" parent="1" vertex="1">
          <mxGeometry x="30" y="60" width="190" height="70" as="geometry" />
        </mxCell>
        <mxCell id="uOH3IVwVDu7RFBPPn6ef-11" value="" style="edgeStyle=orthogonalEdgeStyle;rounded=0;orthogonalLoop=1;jettySize=auto;html=1;endArrow=none;endFill=0;" parent="1" source="uOH3IVwVDu7RFBPPn6ef-4" target="uOH3IVwVDu7RFBPPn6ef-7" edge="1">
          <mxGeometry relative="1" as="geometry" />
        </mxCell>
        <mxCell id="uOH3IVwVDu7RFBPPn6ef-19" style="edgeStyle=orthogonalEdgeStyle;rounded=0;orthogonalLoop=1;jettySize=auto;html=1;endArrow=none;endFill=0;" parent="1" source="uOH3IVwVDu7RFBPPn6ef-4" target="uOH3IVwVDu7RFBPPn6ef-18" edge="1">
          <mxGeometry relative="1" as="geometry" />
        </mxCell>
        <mxCell id="uOH3IVwVDu7RFBPPn6ef-28" value="" style="edgeStyle=orthogonalEdgeStyle;rounded=0;orthogonalLoop=1;jettySize=auto;html=1;endArrow=none;endFill=0;" parent="1" source="uOH3IVwVDu7RFBPPn6ef-4" target="uOH3IVwVDu7RFBPPn6ef-26" edge="1">
          <mxGeometry relative="1" as="geometry" />
        </mxCell>
        <mxCell id="uOH3IVwVDu7RFBPPn6ef-4" value="&lt;font style=&quot;vertical-align: inherit;&quot; dir=&quot;auto&quot;&gt;&lt;font style=&quot;vertical-align: inherit;&quot; dir=&quot;auto&quot;&gt;&lt;font style=&quot;vertical-align: inherit;&quot; dir=&quot;auto&quot;&gt;&lt;font style=&quot;vertical-align: inherit;&quot; dir=&quot;auto&quot;&gt;&lt;font style=&quot;vertical-align: inherit;&quot; dir=&quot;auto&quot;&gt;&lt;font style=&quot;vertical-align: inherit; font-size: 20px;&quot; dir=&quot;auto&quot;&gt;&lt;font style=&quot;vertical-align: inherit;&quot; dir=&quot;auto&quot;&gt;&lt;font style=&quot;vertical-align: inherit;&quot; dir=&quot;auto&quot;&gt;Consultas&lt;/font&gt;&lt;/font&gt;&lt;/font&gt;&lt;/font&gt;&lt;/font&gt;&lt;/font&gt;&lt;/font&gt;&lt;/font&gt;" style="whiteSpace=wrap;html=1;align=center;" parent="1" vertex="1">
          <mxGeometry x="470" y="60" width="200" height="70" as="geometry" />
        </mxCell>
        <mxCell id="uOH3IVwVDu7RFBPPn6ef-27" value="" style="edgeStyle=orthogonalEdgeStyle;rounded=0;orthogonalLoop=1;jettySize=auto;html=1;endArrow=none;endFill=0;" parent="1" source="uOH3IVwVDu7RFBPPn6ef-5" target="uOH3IVwVDu7RFBPPn6ef-18" edge="1">
          <mxGeometry relative="1" as="geometry" />
        </mxCell>
        <mxCell id="uOH3IVwVDu7RFBPPn6ef-5" value="&lt;font style=&quot;vertical-align: inherit;&quot; dir=&quot;auto&quot;&gt;&lt;font style=&quot;vertical-align: inherit;&quot; dir=&quot;auto&quot;&gt;&lt;font style=&quot;vertical-align: inherit;&quot; dir=&quot;auto&quot;&gt;&lt;font style=&quot;vertical-align: inherit;&quot; dir=&quot;auto&quot;&gt;&lt;font style=&quot;vertical-align: inherit;&quot; dir=&quot;auto&quot;&gt;&lt;font style=&quot;vertical-align: inherit; font-size: 20px;&quot; dir=&quot;auto&quot;&gt;&lt;font style=&quot;vertical-align: inherit;&quot; dir=&quot;auto&quot;&gt;&lt;font style=&quot;vertical-align: inherit;&quot; dir=&quot;auto&quot;&gt;&lt;font style=&quot;vertical-align: inherit;&quot; dir=&quot;auto&quot;&gt;&lt;font style=&quot;vertical-align: inherit;&quot; dir=&quot;auto&quot;&gt;Paciente&lt;/font&gt;&lt;/font&gt;&lt;/font&gt;&lt;/font&gt;&lt;/font&gt;&lt;/font&gt;&lt;/font&gt;&lt;/font&gt;&lt;/font&gt;&lt;/font&gt;" style="whiteSpace=wrap;html=1;align=center;" parent="1" vertex="1">
          <mxGeometry x="475" y="380" width="190" height="70" as="geometry" />
        </mxCell>
        <mxCell id="uOH3IVwVDu7RFBPPn6ef-29" value="" style="edgeStyle=orthogonalEdgeStyle;rounded=0;orthogonalLoop=1;jettySize=auto;html=1;endArrow=none;endFill=0;" parent="1" source="uOH3IVwVDu7RFBPPn6ef-6" target="uOH3IVwVDu7RFBPPn6ef-26" edge="1">
          <mxGeometry relative="1" as="geometry" />
        </mxCell>
        <mxCell id="uOH3IVwVDu7RFBPPn6ef-6" value="&lt;font style=&quot;vertical-align: inherit;&quot; dir=&quot;auto&quot;&gt;&lt;font style=&quot;vertical-align: inherit;&quot; dir=&quot;auto&quot;&gt;&lt;font style=&quot;vertical-align: inherit;&quot; dir=&quot;auto&quot;&gt;&lt;font style=&quot;vertical-align: inherit;&quot; dir=&quot;auto&quot;&gt;&lt;font style=&quot;vertical-align: inherit;&quot; dir=&quot;auto&quot;&gt;&lt;font style=&quot;vertical-align: inherit; font-size: 20px;&quot; dir=&quot;auto&quot;&gt;&lt;font style=&quot;vertical-align: inherit;&quot; dir=&quot;auto&quot;&gt;&lt;font style=&quot;vertical-align: inherit;&quot; dir=&quot;auto&quot;&gt;&lt;font style=&quot;vertical-align: inherit;&quot; dir=&quot;auto&quot;&gt;&lt;font style=&quot;vertical-align: inherit;&quot; dir=&quot;auto&quot;&gt;&lt;font style=&quot;vertical-align: inherit;&quot; dir=&quot;auto&quot;&gt;&lt;font style=&quot;vertical-align: inherit;&quot; dir=&quot;auto&quot;&gt;&lt;font style=&quot;vertical-align: inherit;&quot; dir=&quot;auto&quot;&gt;&lt;font style=&quot;vertical-align: inherit;&quot; dir=&quot;auto&quot;&gt;Clínica&lt;/font&gt;&lt;/font&gt;&lt;/font&gt;&lt;/font&gt;&lt;/font&gt;&lt;/font&gt;&lt;/font&gt;&lt;/font&gt;&lt;/font&gt;&lt;/font&gt;&lt;/font&gt;&lt;/font&gt;&lt;/font&gt;&lt;/font&gt;" style="whiteSpace=wrap;html=1;align=center;" parent="1" vertex="1">
          <mxGeometry x="1000" y="60" width="190" height="70" as="geometry" />
        </mxCell>
        <mxCell id="uOH3IVwVDu7RFBPPn6ef-7" value="&lt;font style=&quot;vertical-align: inherit;&quot; dir=&quot;auto&quot;&gt;&lt;font style=&quot;vertical-align: inherit; font-size: 20px;&quot; dir=&quot;auto&quot;&gt;Tem&lt;/font&gt;&lt;/font&gt;" style="shape=rhombus;perimeter=rhombusPerimeter;whiteSpace=wrap;html=1;align=center;" parent="1" vertex="1">
          <mxGeometry x="270" y="65" width="140" height="60" as="geometry" />
        </mxCell>
        <mxCell id="uOH3IVwVDu7RFBPPn6ef-18" value="&lt;font style=&quot;vertical-align: inherit;&quot; dir=&quot;auto&quot;&gt;&lt;font style=&quot;vertical-align: inherit; font-size: 20px;&quot; dir=&quot;auto&quot;&gt;Tem&lt;/font&gt;&lt;/font&gt;" style="shape=rhombus;perimeter=rhombusPerimeter;whiteSpace=wrap;html=1;align=center;" parent="1" vertex="1">
          <mxGeometry x="500" y="210" width="140" height="60" as="geometry" />
        </mxCell>
        <mxCell id="uOH3IVwVDu7RFBPPn6ef-26" value="&lt;font style=&quot;vertical-align: inherit;&quot; dir=&quot;auto&quot;&gt;&lt;font style=&quot;vertical-align: inherit; font-size: 20px;&quot; dir=&quot;auto&quot;&gt;&lt;font style=&quot;vertical-align: inherit;&quot; dir=&quot;auto&quot;&gt;&lt;font style=&quot;vertical-align: inherit;&quot; dir=&quot;auto&quot;&gt;Possui&lt;/font&gt;&lt;/font&gt;&lt;/font&gt;&lt;/font&gt;" style="shape=rhombus;perimeter=rhombusPerimeter;whiteSpace=wrap;html=1;align=center;" parent="1" vertex="1">
          <mxGeometry x="750" y="65" width="140" height="60" as="geometry" />
        </mxCell>
        <mxCell id="E9B9jHzbziiPn58BKx_B-1" value="&lt;font style=&quot;font-size: 20px;&quot;&gt;N&lt;/font&gt;" style="text;html=1;align=center;verticalAlign=middle;resizable=0;points=[];autosize=1;strokeColor=none;fillColor=none;" vertex="1" parent="1">
          <mxGeometry x="430" y="60" width="40" height="40" as="geometry" />
        </mxCell>
        <mxCell id="E9B9jHzbziiPn58BKx_B-3" value="&lt;font style=&quot;font-size: 25px; color: light-dark(rgb(0, 0, 0), rgb(255, 0, 0));&quot;&gt;1 medico pode ter quantas consultas ?&lt;/font&gt;" style="text;html=1;align=center;verticalAlign=middle;resizable=0;points=[];autosize=1;strokeColor=none;fillColor=none;" vertex="1" parent="1">
          <mxGeometry x="95" y="-50" width="450" height="40" as="geometry" />
        </mxCell>
        <mxCell id="E9B9jHzbziiPn58BKx_B-4" value="" style="shape=singleArrow;whiteSpace=wrap;html=1;arrowWidth=0.4;arrowSize=0.4;" vertex="1" parent="1">
          <mxGeometry x="125" y="-10" width="350" height="40" as="geometry" />
        </mxCell>
        <mxCell id="E9B9jHzbziiPn58BKx_B-5" value="" style="shape=singleArrow;whiteSpace=wrap;html=1;arrowWidth=0.4;arrowSize=0.4;direction=west;" vertex="1" parent="1">
          <mxGeometry x="90" y="210" width="350" height="40" as="geometry" />
        </mxCell>
        <mxCell id="E9B9jHzbziiPn58BKx_B-8" value="&lt;font style=&quot;font-size: 25px; color: light-dark(rgb(0, 0, 0), rgb(255, 0, 0));&quot;&gt;1 consulta pode ter quantos medico&amp;nbsp;?&lt;/font&gt;" style="text;html=1;align=center;verticalAlign=middle;resizable=0;points=[];autosize=1;strokeColor=none;fillColor=none;" vertex="1" parent="1">
          <mxGeometry x="75" y="160" width="440" height="40" as="geometry" />
        </mxCell>
        <mxCell id="E9B9jHzbziiPn58BKx_B-9" value="&lt;font style=&quot;font-size: 20px;&quot;&gt;1&lt;/font&gt;" style="text;html=1;align=center;verticalAlign=middle;resizable=0;points=[];autosize=1;strokeColor=none;fillColor=none;" vertex="1" parent="1">
          <mxGeometry x="220" y="60" width="30" height="40" as="geometry" />
        </mxCell>
        <mxCell id="E9B9jHzbziiPn58BKx_B-10" value="&lt;font style=&quot;font-size: 20px;&quot;&gt;1&lt;/font&gt;" style="text;html=1;align=center;verticalAlign=middle;resizable=0;points=[];autosize=1;strokeColor=none;fillColor=none;" vertex="1" parent="1">
          <mxGeometry x="580" y="340" width="30" height="40" as="geometry" />
        </mxCell>
        <mxCell id="E9B9jHzbziiPn58BKx_B-11" value="&lt;font style=&quot;font-size: 20px;&quot;&gt;N&lt;/font&gt;" style="text;html=1;align=center;verticalAlign=middle;resizable=0;points=[];autosize=1;strokeColor=none;fillColor=none;" vertex="1" parent="1">
          <mxGeometry x="670" y="60" width="40" height="40" as="geometry" />
        </mxCell>
        <mxCell id="E9B9jHzbziiPn58BKx_B-12" value="&lt;font style=&quot;font-size: 20px;&quot;&gt;1&lt;/font&gt;" style="text;html=1;align=center;verticalAlign=middle;resizable=0;points=[];autosize=1;strokeColor=none;fillColor=none;" vertex="1" parent="1">
          <mxGeometry x="970" y="60" width="30" height="40" as="geometry" />
        </mxCell>
        <mxCell id="E9B9jHzbziiPn58BKx_B-13" value="&lt;font style=&quot;font-size: 20px;&quot;&gt;N&lt;/font&gt;" style="text;html=1;align=center;verticalAlign=middle;resizable=0;points=[];autosize=1;strokeColor=none;fillColor=none;" vertex="1" parent="1">
          <mxGeometry x="575" y="130" width="40" height="40" as="geometry" />
        </mxCell>
      </root>
    </mxGraphModel>
  </diagram>
  <diagram id="Bm8m2KL2QnhwiZ_q-WsJ" name="Conceitual - ECommerce">
    <mxGraphModel dx="2564" dy="2106" grid="1" gridSize="10" guides="1" tooltips="1" connect="1" arrows="1" fold="1" page="1" pageScale="1" pageWidth="827" pageHeight="1169" math="0" shadow="0">
      <root>
        <mxCell id="0" />
        <mxCell id="1" parent="0" />
        <mxCell id="HZbeW6Bg6rlc_lOpKJxp-7" style="edgeStyle=orthogonalEdgeStyle;rounded=0;orthogonalLoop=1;jettySize=auto;html=1;endArrow=none;endFill=0;" parent="1" source="HZbeW6Bg6rlc_lOpKJxp-1" target="HZbeW6Bg6rlc_lOpKJxp-6" edge="1">
          <mxGeometry relative="1" as="geometry" />
        </mxCell>
        <mxCell id="HZbeW6Bg6rlc_lOpKJxp-1" value="&lt;span style=&quot;font-size: 20px;&quot;&gt;cliente&lt;/span&gt;" style="whiteSpace=wrap;html=1;align=center;" parent="1" vertex="1">
          <mxGeometry x="-490" y="-80" width="130" height="50" as="geometry" />
        </mxCell>
        <mxCell id="HZbeW6Bg6rlc_lOpKJxp-19" style="edgeStyle=orthogonalEdgeStyle;rounded=0;orthogonalLoop=1;jettySize=auto;html=1;entryX=0.5;entryY=1;entryDx=0;entryDy=0;endArrow=none;endFill=0;" parent="1" source="HZbeW6Bg6rlc_lOpKJxp-2" target="HZbeW6Bg6rlc_lOpKJxp-15" edge="1">
          <mxGeometry relative="1" as="geometry" />
        </mxCell>
        <mxCell id="HZbeW6Bg6rlc_lOpKJxp-2" value="&lt;span style=&quot;font-size: 20px;&quot;&gt;produto&lt;/span&gt;" style="whiteSpace=wrap;html=1;align=center;" parent="1" vertex="1">
          <mxGeometry x="47.5" y="650" width="155" height="70" as="geometry" />
        </mxCell>
        <mxCell id="HZbeW6Bg6rlc_lOpKJxp-10" style="edgeStyle=orthogonalEdgeStyle;rounded=0;orthogonalLoop=1;jettySize=auto;html=1;endArrow=none;endFill=0;" parent="1" source="HZbeW6Bg6rlc_lOpKJxp-3" edge="1">
          <mxGeometry relative="1" as="geometry">
            <mxPoint x="310" y="-54.99999999999977" as="targetPoint" />
          </mxGeometry>
        </mxCell>
        <mxCell id="HZbeW6Bg6rlc_lOpKJxp-21" style="edgeStyle=orthogonalEdgeStyle;rounded=0;orthogonalLoop=1;jettySize=auto;html=1;entryX=0.5;entryY=0;entryDx=0;entryDy=0;endArrow=none;endFill=0;" parent="1" source="HZbeW6Bg6rlc_lOpKJxp-3" target="HZbeW6Bg6rlc_lOpKJxp-20" edge="1">
          <mxGeometry relative="1" as="geometry" />
        </mxCell>
        <mxCell id="HZbeW6Bg6rlc_lOpKJxp-3" value="&lt;span style=&quot;font-size: 20px;&quot;&gt;pedido&lt;/span&gt;" style="whiteSpace=wrap;html=1;align=center;" parent="1" vertex="1">
          <mxGeometry x="60" y="-80" width="130" height="50" as="geometry" />
        </mxCell>
        <mxCell id="HZbeW6Bg6rlc_lOpKJxp-23" style="edgeStyle=orthogonalEdgeStyle;rounded=0;orthogonalLoop=1;jettySize=auto;html=1;entryX=0.5;entryY=1;entryDx=0;entryDy=0;endArrow=none;endFill=0;" parent="1" source="HZbeW6Bg6rlc_lOpKJxp-4" target="HZbeW6Bg6rlc_lOpKJxp-20" edge="1">
          <mxGeometry relative="1" as="geometry" />
        </mxCell>
        <mxCell id="HZbeW6Bg6rlc_lOpKJxp-4" value="&lt;span style=&quot;font-size: 20px;&quot;&gt;item_do_pedido&lt;/span&gt;" style="whiteSpace=wrap;html=1;align=center;" parent="1" vertex="1">
          <mxGeometry x="35" y="250" width="180" height="50" as="geometry" />
        </mxCell>
        <mxCell id="HZbeW6Bg6rlc_lOpKJxp-5" value="&lt;span style=&quot;font-size: 20px;&quot;&gt;pagamento&lt;/span&gt;" style="whiteSpace=wrap;html=1;align=center;" parent="1" vertex="1">
          <mxGeometry x="570" y="-80" width="130" height="50" as="geometry" />
        </mxCell>
        <mxCell id="HZbeW6Bg6rlc_lOpKJxp-8" style="edgeStyle=orthogonalEdgeStyle;rounded=0;orthogonalLoop=1;jettySize=auto;html=1;entryX=0;entryY=0.5;entryDx=0;entryDy=0;endArrow=none;endFill=0;" parent="1" source="HZbeW6Bg6rlc_lOpKJxp-6" target="HZbeW6Bg6rlc_lOpKJxp-3" edge="1">
          <mxGeometry relative="1" as="geometry" />
        </mxCell>
        <mxCell id="HZbeW6Bg6rlc_lOpKJxp-6" value="&lt;font style=&quot;font-size: 20px;&quot;&gt;faz&lt;/font&gt;" style="shape=rhombus;perimeter=rhombusPerimeter;whiteSpace=wrap;html=1;align=center;" parent="1" vertex="1">
          <mxGeometry x="-200" y="-85" width="120" height="60" as="geometry" />
        </mxCell>
        <mxCell id="HZbeW6Bg6rlc_lOpKJxp-11" style="edgeStyle=orthogonalEdgeStyle;rounded=0;orthogonalLoop=1;jettySize=auto;html=1;entryX=0;entryY=0.5;entryDx=0;entryDy=0;endArrow=none;endFill=0;" parent="1" source="HZbeW6Bg6rlc_lOpKJxp-9" target="HZbeW6Bg6rlc_lOpKJxp-5" edge="1">
          <mxGeometry relative="1" as="geometry" />
        </mxCell>
        <mxCell id="HZbeW6Bg6rlc_lOpKJxp-9" value="&lt;font style=&quot;font-size: 20px;&quot;&gt;tem&lt;/font&gt;" style="shape=rhombus;perimeter=rhombusPerimeter;whiteSpace=wrap;html=1;align=center;" parent="1" vertex="1">
          <mxGeometry x="300" y="-85" width="120" height="60" as="geometry" />
        </mxCell>
        <mxCell id="HZbeW6Bg6rlc_lOpKJxp-24" style="edgeStyle=orthogonalEdgeStyle;rounded=0;orthogonalLoop=1;jettySize=auto;html=1;endArrow=none;endFill=0;" parent="1" source="HZbeW6Bg6rlc_lOpKJxp-15" target="HZbeW6Bg6rlc_lOpKJxp-4" edge="1">
          <mxGeometry relative="1" as="geometry" />
        </mxCell>
        <mxCell id="HZbeW6Bg6rlc_lOpKJxp-15" value="&lt;font style=&quot;font-size: 20px;&quot;&gt;é&lt;/font&gt;" style="shape=rhombus;perimeter=rhombusPerimeter;whiteSpace=wrap;html=1;align=center;" parent="1" vertex="1">
          <mxGeometry x="65" y="440" width="120" height="60" as="geometry" />
        </mxCell>
        <mxCell id="HZbeW6Bg6rlc_lOpKJxp-20" value="&lt;font style=&quot;font-size: 20px;&quot;&gt;possui&lt;/font&gt;" style="shape=rhombus;perimeter=rhombusPerimeter;whiteSpace=wrap;html=1;align=center;" parent="1" vertex="1">
          <mxGeometry x="65" y="70" width="120" height="60" as="geometry" />
        </mxCell>
        <mxCell id="4thnDMr80zXpxbBIhHMP-1" value="&lt;font style=&quot;font-size: 20px;&quot;&gt;1&lt;/font&gt;" style="text;html=1;align=center;verticalAlign=middle;resizable=0;points=[];autosize=1;strokeColor=none;fillColor=none;" vertex="1" parent="1">
          <mxGeometry x="-360" y="-90" width="30" height="40" as="geometry" />
        </mxCell>
        <mxCell id="4thnDMr80zXpxbBIhHMP-2" value="&lt;span style=&quot;font-size: 20px;&quot;&gt;N&lt;/span&gt;" style="text;html=1;align=center;verticalAlign=middle;resizable=0;points=[];autosize=1;strokeColor=none;fillColor=none;" vertex="1" parent="1">
          <mxGeometry x="20" y="-90" width="40" height="40" as="geometry" />
        </mxCell>
        <mxCell id="yqPwfEDOe5U0scw1B8cg-2" value="&lt;font style=&quot;font-size: 20px;&quot;&gt;1&lt;/font&gt;" style="text;html=1;align=center;verticalAlign=middle;resizable=0;points=[];autosize=1;strokeColor=none;fillColor=none;" vertex="1" parent="1">
          <mxGeometry x="540" y="-90" width="30" height="40" as="geometry" />
        </mxCell>
        <mxCell id="yqPwfEDOe5U0scw1B8cg-3" value="&lt;font style=&quot;font-size: 20px;&quot;&gt;1&lt;/font&gt;" style="text;html=1;align=center;verticalAlign=middle;resizable=0;points=[];autosize=1;strokeColor=none;fillColor=none;" vertex="1" parent="1">
          <mxGeometry x="125" y="-30" width="30" height="40" as="geometry" />
        </mxCell>
        <mxCell id="yqPwfEDOe5U0scw1B8cg-4" value="&lt;span style=&quot;font-size: 20px;&quot;&gt;N&lt;/span&gt;" style="text;html=1;align=center;verticalAlign=middle;resizable=0;points=[];autosize=1;strokeColor=none;fillColor=none;" vertex="1" parent="1">
          <mxGeometry x="125" y="210" width="40" height="40" as="geometry" />
        </mxCell>
        <mxCell id="yqPwfEDOe5U0scw1B8cg-5" value="&lt;font style=&quot;font-size: 20px;&quot;&gt;1&lt;/font&gt;" style="text;html=1;align=center;verticalAlign=middle;resizable=0;points=[];autosize=1;strokeColor=none;fillColor=none;" vertex="1" parent="1">
          <mxGeometry x="130" y="600" width="30" height="40" as="geometry" />
        </mxCell>
        <mxCell id="yqPwfEDOe5U0scw1B8cg-6" value="&lt;span style=&quot;font-size: 20px;&quot;&gt;N&lt;/span&gt;" style="text;html=1;align=center;verticalAlign=middle;resizable=0;points=[];autosize=1;strokeColor=none;fillColor=none;" vertex="1" parent="1">
          <mxGeometry x="130" y="310" width="40" height="40" as="geometry" />
        </mxCell>
        <mxCell id="yqPwfEDOe5U0scw1B8cg-7" value="&lt;font style=&quot;font-size: 20px;&quot;&gt;1&lt;/font&gt;" style="text;html=1;align=center;verticalAlign=middle;resizable=0;points=[];autosize=1;strokeColor=none;fillColor=none;" vertex="1" parent="1">
          <mxGeometry x="190" y="-90" width="30" height="40" as="geometry" />
        </mxCell>
      </root>
    </mxGraphModel>
  </diagram>
  <diagram id="hI_Ic261CXVOvz6pS6ps" name="Lógico - Clinica">
    <mxGraphModel dx="1042" dy="562" grid="1" gridSize="10" guides="1" tooltips="1" connect="1" arrows="1" fold="1" page="1" pageScale="1" pageWidth="827" pageHeight="1169" math="0" shadow="0">
      <root>
        <mxCell id="0" />
        <mxCell id="1" parent="0" />
        <mxCell id="nrpznw9FSVLSLbP8OfaC-1" value="Medico" style="shape=table;startSize=30;container=1;collapsible=1;childLayout=tableLayout;fixedRows=1;rowLines=0;fontStyle=1;align=center;resizeLast=1;html=1;fillColor=#1ba1e2;fontColor=#ffffff;strokeColor=#006EAF;" parent="1" vertex="1">
          <mxGeometry x="30" y="70" width="180" height="160" as="geometry" />
        </mxCell>
        <mxCell id="nrpznw9FSVLSLbP8OfaC-2" value="" style="shape=tableRow;horizontal=0;startSize=0;swimlaneHead=0;swimlaneBody=0;fillColor=none;collapsible=0;dropTarget=0;points=[[0,0.5],[1,0.5]];portConstraint=eastwest;top=0;left=0;right=0;bottom=1;" parent="nrpznw9FSVLSLbP8OfaC-1" vertex="1">
          <mxGeometry y="30" width="180" height="30" as="geometry" />
        </mxCell>
        <mxCell id="nrpznw9FSVLSLbP8OfaC-3" value="PK" style="shape=partialRectangle;connectable=0;fillColor=none;top=0;left=0;bottom=0;right=0;fontStyle=1;overflow=hidden;whiteSpace=wrap;html=1;" parent="nrpznw9FSVLSLbP8OfaC-2" vertex="1">
          <mxGeometry width="30" height="30" as="geometry">
            <mxRectangle width="30" height="30" as="alternateBounds" />
          </mxGeometry>
        </mxCell>
        <mxCell id="nrpznw9FSVLSLbP8OfaC-4" value="id_medico" style="shape=partialRectangle;connectable=0;fillColor=none;top=0;left=0;bottom=0;right=0;align=left;spacingLeft=6;fontStyle=5;overflow=hidden;whiteSpace=wrap;html=1;" parent="nrpznw9FSVLSLbP8OfaC-2" vertex="1">
          <mxGeometry x="30" width="150" height="30" as="geometry">
            <mxRectangle width="150" height="30" as="alternateBounds" />
          </mxGeometry>
        </mxCell>
        <mxCell id="nrpznw9FSVLSLbP8OfaC-5" value="" style="shape=tableRow;horizontal=0;startSize=0;swimlaneHead=0;swimlaneBody=0;fillColor=none;collapsible=0;dropTarget=0;points=[[0,0.5],[1,0.5]];portConstraint=eastwest;top=0;left=0;right=0;bottom=0;" parent="nrpznw9FSVLSLbP8OfaC-1" vertex="1">
          <mxGeometry y="60" width="180" height="30" as="geometry" />
        </mxCell>
        <mxCell id="nrpznw9FSVLSLbP8OfaC-6" value="" style="shape=partialRectangle;connectable=0;fillColor=none;top=0;left=0;bottom=0;right=0;editable=1;overflow=hidden;whiteSpace=wrap;html=1;" parent="nrpznw9FSVLSLbP8OfaC-5" vertex="1">
          <mxGeometry width="30" height="30" as="geometry">
            <mxRectangle width="30" height="30" as="alternateBounds" />
          </mxGeometry>
        </mxCell>
        <mxCell id="nrpznw9FSVLSLbP8OfaC-7" value="nome" style="shape=partialRectangle;connectable=0;fillColor=none;top=0;left=0;bottom=0;right=0;align=left;spacingLeft=6;overflow=hidden;whiteSpace=wrap;html=1;" parent="nrpznw9FSVLSLbP8OfaC-5" vertex="1">
          <mxGeometry x="30" width="150" height="30" as="geometry">
            <mxRectangle width="150" height="30" as="alternateBounds" />
          </mxGeometry>
        </mxCell>
        <mxCell id="nrpznw9FSVLSLbP8OfaC-8" value="" style="shape=tableRow;horizontal=0;startSize=0;swimlaneHead=0;swimlaneBody=0;fillColor=none;collapsible=0;dropTarget=0;points=[[0,0.5],[1,0.5]];portConstraint=eastwest;top=0;left=0;right=0;bottom=0;" parent="nrpznw9FSVLSLbP8OfaC-1" vertex="1">
          <mxGeometry y="90" width="180" height="30" as="geometry" />
        </mxCell>
        <mxCell id="nrpznw9FSVLSLbP8OfaC-9" value="" style="shape=partialRectangle;connectable=0;fillColor=none;top=0;left=0;bottom=0;right=0;editable=1;overflow=hidden;whiteSpace=wrap;html=1;" parent="nrpznw9FSVLSLbP8OfaC-8" vertex="1">
          <mxGeometry width="30" height="30" as="geometry">
            <mxRectangle width="30" height="30" as="alternateBounds" />
          </mxGeometry>
        </mxCell>
        <mxCell id="nrpznw9FSVLSLbP8OfaC-10" value="crm" style="shape=partialRectangle;connectable=0;fillColor=none;top=0;left=0;bottom=0;right=0;align=left;spacingLeft=6;overflow=hidden;whiteSpace=wrap;html=1;" parent="nrpznw9FSVLSLbP8OfaC-8" vertex="1">
          <mxGeometry x="30" width="150" height="30" as="geometry">
            <mxRectangle width="150" height="30" as="alternateBounds" />
          </mxGeometry>
        </mxCell>
        <mxCell id="nrpznw9FSVLSLbP8OfaC-11" value="" style="shape=tableRow;horizontal=0;startSize=0;swimlaneHead=0;swimlaneBody=0;fillColor=none;collapsible=0;dropTarget=0;points=[[0,0.5],[1,0.5]];portConstraint=eastwest;top=0;left=0;right=0;bottom=0;" parent="nrpznw9FSVLSLbP8OfaC-1" vertex="1">
          <mxGeometry y="120" width="180" height="30" as="geometry" />
        </mxCell>
        <mxCell id="nrpznw9FSVLSLbP8OfaC-12" value="" style="shape=partialRectangle;connectable=0;fillColor=none;top=0;left=0;bottom=0;right=0;editable=1;overflow=hidden;whiteSpace=wrap;html=1;" parent="nrpznw9FSVLSLbP8OfaC-11" vertex="1">
          <mxGeometry width="30" height="30" as="geometry">
            <mxRectangle width="30" height="30" as="alternateBounds" />
          </mxGeometry>
        </mxCell>
        <mxCell id="nrpznw9FSVLSLbP8OfaC-13" value="especialidade" style="shape=partialRectangle;connectable=0;fillColor=none;top=0;left=0;bottom=0;right=0;align=left;spacingLeft=6;overflow=hidden;whiteSpace=wrap;html=1;" parent="nrpznw9FSVLSLbP8OfaC-11" vertex="1">
          <mxGeometry x="30" width="150" height="30" as="geometry">
            <mxRectangle width="150" height="30" as="alternateBounds" />
          </mxGeometry>
        </mxCell>
        <mxCell id="T963Fyw0SudpzYcVBIuN-1" value="Consulta" style="shape=table;startSize=30;container=1;collapsible=1;childLayout=tableLayout;fixedRows=1;rowLines=0;fontStyle=1;align=center;resizeLast=1;html=1;fillColor=#1ba1e2;fontColor=#ffffff;strokeColor=#006EAF;" parent="1" vertex="1">
          <mxGeometry x="370" y="80" width="180" height="180" as="geometry" />
        </mxCell>
        <mxCell id="T963Fyw0SudpzYcVBIuN-2" value="" style="shape=tableRow;horizontal=0;startSize=0;swimlaneHead=0;swimlaneBody=0;fillColor=none;collapsible=0;dropTarget=0;points=[[0,0.5],[1,0.5]];portConstraint=eastwest;top=0;left=0;right=0;bottom=1;" parent="T963Fyw0SudpzYcVBIuN-1" vertex="1">
          <mxGeometry y="30" width="180" height="30" as="geometry" />
        </mxCell>
        <mxCell id="T963Fyw0SudpzYcVBIuN-3" value="PK" style="shape=partialRectangle;connectable=0;fillColor=none;top=0;left=0;bottom=0;right=0;fontStyle=1;overflow=hidden;whiteSpace=wrap;html=1;" parent="T963Fyw0SudpzYcVBIuN-2" vertex="1">
          <mxGeometry width="30" height="30" as="geometry">
            <mxRectangle width="30" height="30" as="alternateBounds" />
          </mxGeometry>
        </mxCell>
        <mxCell id="T963Fyw0SudpzYcVBIuN-4" value="id_consulta" style="shape=partialRectangle;connectable=0;fillColor=none;top=0;left=0;bottom=0;right=0;align=left;spacingLeft=6;fontStyle=5;overflow=hidden;whiteSpace=wrap;html=1;" parent="T963Fyw0SudpzYcVBIuN-2" vertex="1">
          <mxGeometry x="30" width="150" height="30" as="geometry">
            <mxRectangle width="150" height="30" as="alternateBounds" />
          </mxGeometry>
        </mxCell>
        <mxCell id="T963Fyw0SudpzYcVBIuN-5" value="" style="shape=tableRow;horizontal=0;startSize=0;swimlaneHead=0;swimlaneBody=0;fillColor=none;collapsible=0;dropTarget=0;points=[[0,0.5],[1,0.5]];portConstraint=eastwest;top=0;left=0;right=0;bottom=0;" parent="T963Fyw0SudpzYcVBIuN-1" vertex="1">
          <mxGeometry y="60" width="180" height="30" as="geometry" />
        </mxCell>
        <mxCell id="T963Fyw0SudpzYcVBIuN-6" value="" style="shape=partialRectangle;connectable=0;fillColor=none;top=0;left=0;bottom=0;right=0;editable=1;overflow=hidden;whiteSpace=wrap;html=1;" parent="T963Fyw0SudpzYcVBIuN-5" vertex="1">
          <mxGeometry width="30" height="30" as="geometry">
            <mxRectangle width="30" height="30" as="alternateBounds" />
          </mxGeometry>
        </mxCell>
        <mxCell id="T963Fyw0SudpzYcVBIuN-7" value="data" style="shape=partialRectangle;connectable=0;fillColor=none;top=0;left=0;bottom=0;right=0;align=left;spacingLeft=6;overflow=hidden;whiteSpace=wrap;html=1;" parent="T963Fyw0SudpzYcVBIuN-5" vertex="1">
          <mxGeometry x="30" width="150" height="30" as="geometry">
            <mxRectangle width="150" height="30" as="alternateBounds" />
          </mxGeometry>
        </mxCell>
        <mxCell id="OKSX3XEkHtX4dP32dWJd-9" value="" style="shape=tableRow;horizontal=0;startSize=0;swimlaneHead=0;swimlaneBody=0;fillColor=none;collapsible=0;dropTarget=0;points=[[0,0.5],[1,0.5]];portConstraint=eastwest;top=0;left=0;right=0;bottom=0;" parent="T963Fyw0SudpzYcVBIuN-1" vertex="1">
          <mxGeometry y="90" width="180" height="30" as="geometry" />
        </mxCell>
        <mxCell id="OKSX3XEkHtX4dP32dWJd-10" value="FK" style="shape=partialRectangle;connectable=0;fillColor=none;top=0;left=0;bottom=0;right=0;editable=1;overflow=hidden;whiteSpace=wrap;html=1;" parent="OKSX3XEkHtX4dP32dWJd-9" vertex="1">
          <mxGeometry width="30" height="30" as="geometry">
            <mxRectangle width="30" height="30" as="alternateBounds" />
          </mxGeometry>
        </mxCell>
        <mxCell id="OKSX3XEkHtX4dP32dWJd-11" value="id_medico" style="shape=partialRectangle;connectable=0;fillColor=none;top=0;left=0;bottom=0;right=0;align=left;spacingLeft=6;overflow=hidden;whiteSpace=wrap;html=1;" parent="OKSX3XEkHtX4dP32dWJd-9" vertex="1">
          <mxGeometry x="30" width="150" height="30" as="geometry">
            <mxRectangle width="150" height="30" as="alternateBounds" />
          </mxGeometry>
        </mxCell>
        <mxCell id="tMt7LivkEaail1JiMqRg-1" value="" style="shape=tableRow;horizontal=0;startSize=0;swimlaneHead=0;swimlaneBody=0;fillColor=none;collapsible=0;dropTarget=0;points=[[0,0.5],[1,0.5]];portConstraint=eastwest;top=0;left=0;right=0;bottom=0;" parent="T963Fyw0SudpzYcVBIuN-1" vertex="1">
          <mxGeometry y="120" width="180" height="30" as="geometry" />
        </mxCell>
        <mxCell id="tMt7LivkEaail1JiMqRg-2" value="FK" style="shape=partialRectangle;connectable=0;fillColor=none;top=0;left=0;bottom=0;right=0;editable=1;overflow=hidden;whiteSpace=wrap;html=1;" parent="tMt7LivkEaail1JiMqRg-1" vertex="1">
          <mxGeometry width="30" height="30" as="geometry">
            <mxRectangle width="30" height="30" as="alternateBounds" />
          </mxGeometry>
        </mxCell>
        <mxCell id="tMt7LivkEaail1JiMqRg-3" value="id_clinica" style="shape=partialRectangle;connectable=0;fillColor=none;top=0;left=0;bottom=0;right=0;align=left;spacingLeft=6;overflow=hidden;whiteSpace=wrap;html=1;" parent="tMt7LivkEaail1JiMqRg-1" vertex="1">
          <mxGeometry x="30" width="150" height="30" as="geometry">
            <mxRectangle width="150" height="30" as="alternateBounds" />
          </mxGeometry>
        </mxCell>
        <mxCell id="tMt7LivkEaail1JiMqRg-4" value="" style="shape=tableRow;horizontal=0;startSize=0;swimlaneHead=0;swimlaneBody=0;fillColor=none;collapsible=0;dropTarget=0;points=[[0,0.5],[1,0.5]];portConstraint=eastwest;top=0;left=0;right=0;bottom=0;" parent="T963Fyw0SudpzYcVBIuN-1" vertex="1">
          <mxGeometry y="150" width="180" height="30" as="geometry" />
        </mxCell>
        <mxCell id="tMt7LivkEaail1JiMqRg-5" value="FK" style="shape=partialRectangle;connectable=0;fillColor=none;top=0;left=0;bottom=0;right=0;editable=1;overflow=hidden;whiteSpace=wrap;html=1;" parent="tMt7LivkEaail1JiMqRg-4" vertex="1">
          <mxGeometry width="30" height="30" as="geometry">
            <mxRectangle width="30" height="30" as="alternateBounds" />
          </mxGeometry>
        </mxCell>
        <mxCell id="tMt7LivkEaail1JiMqRg-6" value="cpf" style="shape=partialRectangle;connectable=0;fillColor=none;top=0;left=0;bottom=0;right=0;align=left;spacingLeft=6;overflow=hidden;whiteSpace=wrap;html=1;" parent="tMt7LivkEaail1JiMqRg-4" vertex="1">
          <mxGeometry x="30" width="150" height="30" as="geometry">
            <mxRectangle width="150" height="30" as="alternateBounds" />
          </mxGeometry>
        </mxCell>
        <mxCell id="O6ckdhGZtjAWPzXZMwg1-1" value="Paciente" style="shape=table;startSize=30;container=1;collapsible=1;childLayout=tableLayout;fixedRows=1;rowLines=0;fontStyle=1;align=center;resizeLast=1;html=1;fillColor=#1ba1e2;fontColor=#ffffff;strokeColor=#006EAF;" parent="1" vertex="1">
          <mxGeometry x="350" y="380" width="180" height="160" as="geometry" />
        </mxCell>
        <mxCell id="O6ckdhGZtjAWPzXZMwg1-2" value="" style="shape=tableRow;horizontal=0;startSize=0;swimlaneHead=0;swimlaneBody=0;fillColor=none;collapsible=0;dropTarget=0;points=[[0,0.5],[1,0.5]];portConstraint=eastwest;top=0;left=0;right=0;bottom=1;" parent="O6ckdhGZtjAWPzXZMwg1-1" vertex="1">
          <mxGeometry y="30" width="180" height="30" as="geometry" />
        </mxCell>
        <mxCell id="O6ckdhGZtjAWPzXZMwg1-3" value="PK" style="shape=partialRectangle;connectable=0;fillColor=none;top=0;left=0;bottom=0;right=0;fontStyle=1;overflow=hidden;whiteSpace=wrap;html=1;" parent="O6ckdhGZtjAWPzXZMwg1-2" vertex="1">
          <mxGeometry width="30" height="30" as="geometry">
            <mxRectangle width="30" height="30" as="alternateBounds" />
          </mxGeometry>
        </mxCell>
        <mxCell id="O6ckdhGZtjAWPzXZMwg1-4" value="cpf" style="shape=partialRectangle;connectable=0;fillColor=none;top=0;left=0;bottom=0;right=0;align=left;spacingLeft=6;fontStyle=5;overflow=hidden;whiteSpace=wrap;html=1;" parent="O6ckdhGZtjAWPzXZMwg1-2" vertex="1">
          <mxGeometry x="30" width="150" height="30" as="geometry">
            <mxRectangle width="150" height="30" as="alternateBounds" />
          </mxGeometry>
        </mxCell>
        <mxCell id="O6ckdhGZtjAWPzXZMwg1-5" value="" style="shape=tableRow;horizontal=0;startSize=0;swimlaneHead=0;swimlaneBody=0;fillColor=none;collapsible=0;dropTarget=0;points=[[0,0.5],[1,0.5]];portConstraint=eastwest;top=0;left=0;right=0;bottom=0;" parent="O6ckdhGZtjAWPzXZMwg1-1" vertex="1">
          <mxGeometry y="60" width="180" height="30" as="geometry" />
        </mxCell>
        <mxCell id="O6ckdhGZtjAWPzXZMwg1-6" value="" style="shape=partialRectangle;connectable=0;fillColor=none;top=0;left=0;bottom=0;right=0;editable=1;overflow=hidden;whiteSpace=wrap;html=1;" parent="O6ckdhGZtjAWPzXZMwg1-5" vertex="1">
          <mxGeometry width="30" height="30" as="geometry">
            <mxRectangle width="30" height="30" as="alternateBounds" />
          </mxGeometry>
        </mxCell>
        <mxCell id="O6ckdhGZtjAWPzXZMwg1-7" value="nome" style="shape=partialRectangle;connectable=0;fillColor=none;top=0;left=0;bottom=0;right=0;align=left;spacingLeft=6;overflow=hidden;whiteSpace=wrap;html=1;" parent="O6ckdhGZtjAWPzXZMwg1-5" vertex="1">
          <mxGeometry x="30" width="150" height="30" as="geometry">
            <mxRectangle width="150" height="30" as="alternateBounds" />
          </mxGeometry>
        </mxCell>
        <mxCell id="O6ckdhGZtjAWPzXZMwg1-8" value="" style="shape=tableRow;horizontal=0;startSize=0;swimlaneHead=0;swimlaneBody=0;fillColor=none;collapsible=0;dropTarget=0;points=[[0,0.5],[1,0.5]];portConstraint=eastwest;top=0;left=0;right=0;bottom=0;" parent="O6ckdhGZtjAWPzXZMwg1-1" vertex="1">
          <mxGeometry y="90" width="180" height="30" as="geometry" />
        </mxCell>
        <mxCell id="O6ckdhGZtjAWPzXZMwg1-9" value="" style="shape=partialRectangle;connectable=0;fillColor=none;top=0;left=0;bottom=0;right=0;editable=1;overflow=hidden;whiteSpace=wrap;html=1;" parent="O6ckdhGZtjAWPzXZMwg1-8" vertex="1">
          <mxGeometry width="30" height="30" as="geometry">
            <mxRectangle width="30" height="30" as="alternateBounds" />
          </mxGeometry>
        </mxCell>
        <mxCell id="O6ckdhGZtjAWPzXZMwg1-10" value="idade" style="shape=partialRectangle;connectable=0;fillColor=none;top=0;left=0;bottom=0;right=0;align=left;spacingLeft=6;overflow=hidden;whiteSpace=wrap;html=1;" parent="O6ckdhGZtjAWPzXZMwg1-8" vertex="1">
          <mxGeometry x="30" width="150" height="30" as="geometry">
            <mxRectangle width="150" height="30" as="alternateBounds" />
          </mxGeometry>
        </mxCell>
        <mxCell id="O6ckdhGZtjAWPzXZMwg1-11" value="" style="shape=tableRow;horizontal=0;startSize=0;swimlaneHead=0;swimlaneBody=0;fillColor=none;collapsible=0;dropTarget=0;points=[[0,0.5],[1,0.5]];portConstraint=eastwest;top=0;left=0;right=0;bottom=0;" parent="O6ckdhGZtjAWPzXZMwg1-1" vertex="1">
          <mxGeometry y="120" width="180" height="30" as="geometry" />
        </mxCell>
        <mxCell id="O6ckdhGZtjAWPzXZMwg1-12" value="" style="shape=partialRectangle;connectable=0;fillColor=none;top=0;left=0;bottom=0;right=0;editable=1;overflow=hidden;whiteSpace=wrap;html=1;" parent="O6ckdhGZtjAWPzXZMwg1-11" vertex="1">
          <mxGeometry width="30" height="30" as="geometry">
            <mxRectangle width="30" height="30" as="alternateBounds" />
          </mxGeometry>
        </mxCell>
        <mxCell id="O6ckdhGZtjAWPzXZMwg1-13" value="data_nascimento" style="shape=partialRectangle;connectable=0;fillColor=none;top=0;left=0;bottom=0;right=0;align=left;spacingLeft=6;overflow=hidden;whiteSpace=wrap;html=1;" parent="O6ckdhGZtjAWPzXZMwg1-11" vertex="1">
          <mxGeometry x="30" width="150" height="30" as="geometry">
            <mxRectangle width="150" height="30" as="alternateBounds" />
          </mxGeometry>
        </mxCell>
        <mxCell id="7vVGCR6KI71ADrrRL5CF-1" value="Clinica" style="shape=table;startSize=30;container=1;collapsible=1;childLayout=tableLayout;fixedRows=1;rowLines=0;fontStyle=1;align=center;resizeLast=1;html=1;fillColor=#1ba1e2;fontColor=#ffffff;strokeColor=#006EAF;" parent="1" vertex="1">
          <mxGeometry x="710" y="85" width="180" height="160" as="geometry" />
        </mxCell>
        <mxCell id="7vVGCR6KI71ADrrRL5CF-2" value="" style="shape=tableRow;horizontal=0;startSize=0;swimlaneHead=0;swimlaneBody=0;fillColor=none;collapsible=0;dropTarget=0;points=[[0,0.5],[1,0.5]];portConstraint=eastwest;top=0;left=0;right=0;bottom=1;" parent="7vVGCR6KI71ADrrRL5CF-1" vertex="1">
          <mxGeometry y="30" width="180" height="30" as="geometry" />
        </mxCell>
        <mxCell id="7vVGCR6KI71ADrrRL5CF-3" value="PK" style="shape=partialRectangle;connectable=0;fillColor=none;top=0;left=0;bottom=0;right=0;fontStyle=1;overflow=hidden;whiteSpace=wrap;html=1;" parent="7vVGCR6KI71ADrrRL5CF-2" vertex="1">
          <mxGeometry width="30" height="30" as="geometry">
            <mxRectangle width="30" height="30" as="alternateBounds" />
          </mxGeometry>
        </mxCell>
        <mxCell id="7vVGCR6KI71ADrrRL5CF-4" value="id_clinica" style="shape=partialRectangle;connectable=0;fillColor=none;top=0;left=0;bottom=0;right=0;align=left;spacingLeft=6;fontStyle=5;overflow=hidden;whiteSpace=wrap;html=1;" parent="7vVGCR6KI71ADrrRL5CF-2" vertex="1">
          <mxGeometry x="30" width="150" height="30" as="geometry">
            <mxRectangle width="150" height="30" as="alternateBounds" />
          </mxGeometry>
        </mxCell>
        <mxCell id="7vVGCR6KI71ADrrRL5CF-5" value="" style="shape=tableRow;horizontal=0;startSize=0;swimlaneHead=0;swimlaneBody=0;fillColor=none;collapsible=0;dropTarget=0;points=[[0,0.5],[1,0.5]];portConstraint=eastwest;top=0;left=0;right=0;bottom=0;" parent="7vVGCR6KI71ADrrRL5CF-1" vertex="1">
          <mxGeometry y="60" width="180" height="30" as="geometry" />
        </mxCell>
        <mxCell id="7vVGCR6KI71ADrrRL5CF-6" value="" style="shape=partialRectangle;connectable=0;fillColor=none;top=0;left=0;bottom=0;right=0;editable=1;overflow=hidden;whiteSpace=wrap;html=1;" parent="7vVGCR6KI71ADrrRL5CF-5" vertex="1">
          <mxGeometry width="30" height="30" as="geometry">
            <mxRectangle width="30" height="30" as="alternateBounds" />
          </mxGeometry>
        </mxCell>
        <mxCell id="7vVGCR6KI71ADrrRL5CF-7" value="nome" style="shape=partialRectangle;connectable=0;fillColor=none;top=0;left=0;bottom=0;right=0;align=left;spacingLeft=6;overflow=hidden;whiteSpace=wrap;html=1;" parent="7vVGCR6KI71ADrrRL5CF-5" vertex="1">
          <mxGeometry x="30" width="150" height="30" as="geometry">
            <mxRectangle width="150" height="30" as="alternateBounds" />
          </mxGeometry>
        </mxCell>
        <mxCell id="7vVGCR6KI71ADrrRL5CF-8" value="" style="shape=tableRow;horizontal=0;startSize=0;swimlaneHead=0;swimlaneBody=0;fillColor=none;collapsible=0;dropTarget=0;points=[[0,0.5],[1,0.5]];portConstraint=eastwest;top=0;left=0;right=0;bottom=0;" parent="7vVGCR6KI71ADrrRL5CF-1" vertex="1">
          <mxGeometry y="90" width="180" height="30" as="geometry" />
        </mxCell>
        <mxCell id="7vVGCR6KI71ADrrRL5CF-9" value="" style="shape=partialRectangle;connectable=0;fillColor=none;top=0;left=0;bottom=0;right=0;editable=1;overflow=hidden;whiteSpace=wrap;html=1;" parent="7vVGCR6KI71ADrrRL5CF-8" vertex="1">
          <mxGeometry width="30" height="30" as="geometry">
            <mxRectangle width="30" height="30" as="alternateBounds" />
          </mxGeometry>
        </mxCell>
        <mxCell id="7vVGCR6KI71ADrrRL5CF-10" value="endereco" style="shape=partialRectangle;connectable=0;fillColor=none;top=0;left=0;bottom=0;right=0;align=left;spacingLeft=6;overflow=hidden;whiteSpace=wrap;html=1;" parent="7vVGCR6KI71ADrrRL5CF-8" vertex="1">
          <mxGeometry x="30" width="150" height="30" as="geometry">
            <mxRectangle width="150" height="30" as="alternateBounds" />
          </mxGeometry>
        </mxCell>
        <mxCell id="_wwniuBk7CO-UJQD3HoJ-2" value="" style="shape=tableRow;horizontal=0;startSize=0;swimlaneHead=0;swimlaneBody=0;fillColor=none;collapsible=0;dropTarget=0;points=[[0,0.5],[1,0.5]];portConstraint=eastwest;top=0;left=0;right=0;bottom=0;" parent="7vVGCR6KI71ADrrRL5CF-1" vertex="1">
          <mxGeometry y="120" width="180" height="30" as="geometry" />
        </mxCell>
        <mxCell id="_wwniuBk7CO-UJQD3HoJ-3" value="" style="shape=partialRectangle;connectable=0;fillColor=none;top=0;left=0;bottom=0;right=0;editable=1;overflow=hidden;whiteSpace=wrap;html=1;" parent="_wwniuBk7CO-UJQD3HoJ-2" vertex="1">
          <mxGeometry width="30" height="30" as="geometry">
            <mxRectangle width="30" height="30" as="alternateBounds" />
          </mxGeometry>
        </mxCell>
        <mxCell id="_wwniuBk7CO-UJQD3HoJ-4" value="descricao" style="shape=partialRectangle;connectable=0;fillColor=none;top=0;left=0;bottom=0;right=0;align=left;spacingLeft=6;overflow=hidden;whiteSpace=wrap;html=1;" parent="_wwniuBk7CO-UJQD3HoJ-2" vertex="1">
          <mxGeometry x="30" width="150" height="30" as="geometry">
            <mxRectangle width="150" height="30" as="alternateBounds" />
          </mxGeometry>
        </mxCell>
        <mxCell id="_wwniuBk7CO-UJQD3HoJ-1" value="" style="edgeStyle=entityRelationEdgeStyle;fontSize=12;html=1;endArrow=ERoneToMany;rounded=0;exitX=1;exitY=0.5;exitDx=0;exitDy=0;" parent="1" source="nrpznw9FSVLSLbP8OfaC-2" edge="1">
          <mxGeometry width="100" height="100" relative="1" as="geometry">
            <mxPoint x="250" y="210" as="sourcePoint" />
            <mxPoint x="370" y="180" as="targetPoint" />
            <Array as="points">
              <mxPoint x="250" y="160" />
            </Array>
          </mxGeometry>
        </mxCell>
        <mxCell id="tMt7LivkEaail1JiMqRg-7" value="" style="edgeStyle=entityRelationEdgeStyle;fontSize=12;html=1;endArrow=ERoneToMany;rounded=0;entryX=1;entryY=0.86;entryDx=0;entryDy=0;exitX=0;exitY=0.5;exitDx=0;exitDy=0;entryPerimeter=0;" parent="1" source="7vVGCR6KI71ADrrRL5CF-2" target="tMt7LivkEaail1JiMqRg-1" edge="1">
          <mxGeometry width="100" height="100" relative="1" as="geometry">
            <mxPoint x="620" y="130" as="sourcePoint" />
            <mxPoint x="630" y="260" as="targetPoint" />
          </mxGeometry>
        </mxCell>
        <mxCell id="tMt7LivkEaail1JiMqRg-8" value="" style="edgeStyle=entityRelationEdgeStyle;fontSize=12;html=1;endArrow=ERoneToMany;rounded=0;exitX=1.004;exitY=0.767;exitDx=0;exitDy=0;exitPerimeter=0;" parent="1" source="O6ckdhGZtjAWPzXZMwg1-2" edge="1">
          <mxGeometry width="100" height="100" relative="1" as="geometry">
            <mxPoint x="360" y="390" as="sourcePoint" />
            <mxPoint x="370" y="250" as="targetPoint" />
          </mxGeometry>
        </mxCell>
      </root>
    </mxGraphModel>
  </diagram>
  <diagram name="Fisico - Clinica" id="iclImbt5XSU7SqO3cNKP">
    <mxGraphModel dx="1042" dy="562" grid="1" gridSize="10" guides="1" tooltips="1" connect="1" arrows="1" fold="1" page="1" pageScale="1" pageWidth="827" pageHeight="1169" math="0" shadow="0">
      <root>
        <mxCell id="NgoHyUSWunO2cNQGsxpN-0" />
        <mxCell id="NgoHyUSWunO2cNQGsxpN-1" parent="NgoHyUSWunO2cNQGsxpN-0" />
        <mxCell id="NgoHyUSWunO2cNQGsxpN-2" value="Medico" style="shape=table;startSize=30;container=1;collapsible=1;childLayout=tableLayout;fixedRows=1;rowLines=0;fontStyle=1;align=center;resizeLast=1;html=1;fillColor=#1ba1e2;fontColor=#ffffff;strokeColor=#006EAF;" vertex="1" parent="NgoHyUSWunO2cNQGsxpN-1">
          <mxGeometry x="30" y="70" width="180" height="160" as="geometry" />
        </mxCell>
        <mxCell id="NgoHyUSWunO2cNQGsxpN-3" value="" style="shape=tableRow;horizontal=0;startSize=0;swimlaneHead=0;swimlaneBody=0;fillColor=none;collapsible=0;dropTarget=0;points=[[0,0.5],[1,0.5]];portConstraint=eastwest;top=0;left=0;right=0;bottom=1;" vertex="1" parent="NgoHyUSWunO2cNQGsxpN-2">
          <mxGeometry y="30" width="180" height="30" as="geometry" />
        </mxCell>
        <mxCell id="NgoHyUSWunO2cNQGsxpN-4" value="PK" style="shape=partialRectangle;connectable=0;fillColor=none;top=0;left=0;bottom=0;right=0;fontStyle=1;overflow=hidden;whiteSpace=wrap;html=1;" vertex="1" parent="NgoHyUSWunO2cNQGsxpN-3">
          <mxGeometry width="30" height="30" as="geometry">
            <mxRectangle width="30" height="30" as="alternateBounds" />
          </mxGeometry>
        </mxCell>
        <mxCell id="NgoHyUSWunO2cNQGsxpN-5" value="id_medico&amp;nbsp; INT" style="shape=partialRectangle;connectable=0;fillColor=none;top=0;left=0;bottom=0;right=0;align=left;spacingLeft=6;fontStyle=5;overflow=hidden;whiteSpace=wrap;html=1;" vertex="1" parent="NgoHyUSWunO2cNQGsxpN-3">
          <mxGeometry x="30" width="150" height="30" as="geometry">
            <mxRectangle width="150" height="30" as="alternateBounds" />
          </mxGeometry>
        </mxCell>
        <mxCell id="NgoHyUSWunO2cNQGsxpN-6" value="" style="shape=tableRow;horizontal=0;startSize=0;swimlaneHead=0;swimlaneBody=0;fillColor=none;collapsible=0;dropTarget=0;points=[[0,0.5],[1,0.5]];portConstraint=eastwest;top=0;left=0;right=0;bottom=0;" vertex="1" parent="NgoHyUSWunO2cNQGsxpN-2">
          <mxGeometry y="60" width="180" height="30" as="geometry" />
        </mxCell>
        <mxCell id="NgoHyUSWunO2cNQGsxpN-7" value="" style="shape=partialRectangle;connectable=0;fillColor=none;top=0;left=0;bottom=0;right=0;editable=1;overflow=hidden;whiteSpace=wrap;html=1;" vertex="1" parent="NgoHyUSWunO2cNQGsxpN-6">
          <mxGeometry width="30" height="30" as="geometry">
            <mxRectangle width="30" height="30" as="alternateBounds" />
          </mxGeometry>
        </mxCell>
        <mxCell id="NgoHyUSWunO2cNQGsxpN-8" value="nome&amp;nbsp; TEXT NOT NULL" style="shape=partialRectangle;connectable=0;fillColor=none;top=0;left=0;bottom=0;right=0;align=left;spacingLeft=6;overflow=hidden;whiteSpace=wrap;html=1;" vertex="1" parent="NgoHyUSWunO2cNQGsxpN-6">
          <mxGeometry x="30" width="150" height="30" as="geometry">
            <mxRectangle width="150" height="30" as="alternateBounds" />
          </mxGeometry>
        </mxCell>
        <mxCell id="NgoHyUSWunO2cNQGsxpN-9" value="" style="shape=tableRow;horizontal=0;startSize=0;swimlaneHead=0;swimlaneBody=0;fillColor=none;collapsible=0;dropTarget=0;points=[[0,0.5],[1,0.5]];portConstraint=eastwest;top=0;left=0;right=0;bottom=0;" vertex="1" parent="NgoHyUSWunO2cNQGsxpN-2">
          <mxGeometry y="90" width="180" height="30" as="geometry" />
        </mxCell>
        <mxCell id="NgoHyUSWunO2cNQGsxpN-10" value="" style="shape=partialRectangle;connectable=0;fillColor=none;top=0;left=0;bottom=0;right=0;editable=1;overflow=hidden;whiteSpace=wrap;html=1;" vertex="1" parent="NgoHyUSWunO2cNQGsxpN-9">
          <mxGeometry width="30" height="30" as="geometry">
            <mxRectangle width="30" height="30" as="alternateBounds" />
          </mxGeometry>
        </mxCell>
        <mxCell id="NgoHyUSWunO2cNQGsxpN-11" value="crm&amp;nbsp; TEXT NOT NULL" style="shape=partialRectangle;connectable=0;fillColor=none;top=0;left=0;bottom=0;right=0;align=left;spacingLeft=6;overflow=hidden;whiteSpace=wrap;html=1;" vertex="1" parent="NgoHyUSWunO2cNQGsxpN-9">
          <mxGeometry x="30" width="150" height="30" as="geometry">
            <mxRectangle width="150" height="30" as="alternateBounds" />
          </mxGeometry>
        </mxCell>
        <mxCell id="NgoHyUSWunO2cNQGsxpN-12" value="" style="shape=tableRow;horizontal=0;startSize=0;swimlaneHead=0;swimlaneBody=0;fillColor=none;collapsible=0;dropTarget=0;points=[[0,0.5],[1,0.5]];portConstraint=eastwest;top=0;left=0;right=0;bottom=0;" vertex="1" parent="NgoHyUSWunO2cNQGsxpN-2">
          <mxGeometry y="120" width="180" height="30" as="geometry" />
        </mxCell>
        <mxCell id="NgoHyUSWunO2cNQGsxpN-13" value="" style="shape=partialRectangle;connectable=0;fillColor=none;top=0;left=0;bottom=0;right=0;editable=1;overflow=hidden;whiteSpace=wrap;html=1;" vertex="1" parent="NgoHyUSWunO2cNQGsxpN-12">
          <mxGeometry width="30" height="30" as="geometry">
            <mxRectangle width="30" height="30" as="alternateBounds" />
          </mxGeometry>
        </mxCell>
        <mxCell id="NgoHyUSWunO2cNQGsxpN-14" value="especialidade&amp;nbsp; TEXT NOT NULL" style="shape=partialRectangle;connectable=0;fillColor=none;top=0;left=0;bottom=0;right=0;align=left;spacingLeft=6;overflow=hidden;whiteSpace=wrap;html=1;" vertex="1" parent="NgoHyUSWunO2cNQGsxpN-12">
          <mxGeometry x="30" width="150" height="30" as="geometry">
            <mxRectangle width="150" height="30" as="alternateBounds" />
          </mxGeometry>
        </mxCell>
        <mxCell id="NgoHyUSWunO2cNQGsxpN-15" value="Consulta" style="shape=table;startSize=30;container=1;collapsible=1;childLayout=tableLayout;fixedRows=1;rowLines=0;fontStyle=1;align=center;resizeLast=1;html=1;fillColor=#1ba1e2;fontColor=#ffffff;strokeColor=#006EAF;" vertex="1" parent="NgoHyUSWunO2cNQGsxpN-1">
          <mxGeometry x="370" y="80" width="180" height="210" as="geometry" />
        </mxCell>
        <mxCell id="NgoHyUSWunO2cNQGsxpN-16" value="" style="shape=tableRow;horizontal=0;startSize=0;swimlaneHead=0;swimlaneBody=0;fillColor=none;collapsible=0;dropTarget=0;points=[[0,0.5],[1,0.5]];portConstraint=eastwest;top=0;left=0;right=0;bottom=1;" vertex="1" parent="NgoHyUSWunO2cNQGsxpN-15">
          <mxGeometry y="30" width="180" height="30" as="geometry" />
        </mxCell>
        <mxCell id="NgoHyUSWunO2cNQGsxpN-17" value="PK" style="shape=partialRectangle;connectable=0;fillColor=none;top=0;left=0;bottom=0;right=0;fontStyle=1;overflow=hidden;whiteSpace=wrap;html=1;" vertex="1" parent="NgoHyUSWunO2cNQGsxpN-16">
          <mxGeometry width="30" height="30" as="geometry">
            <mxRectangle width="30" height="30" as="alternateBounds" />
          </mxGeometry>
        </mxCell>
        <mxCell id="NgoHyUSWunO2cNQGsxpN-18" value="id_consulta&amp;nbsp; INT" style="shape=partialRectangle;connectable=0;fillColor=none;top=0;left=0;bottom=0;right=0;align=left;spacingLeft=6;fontStyle=5;overflow=hidden;whiteSpace=wrap;html=1;" vertex="1" parent="NgoHyUSWunO2cNQGsxpN-16">
          <mxGeometry x="30" width="150" height="30" as="geometry">
            <mxRectangle width="150" height="30" as="alternateBounds" />
          </mxGeometry>
        </mxCell>
        <mxCell id="NgoHyUSWunO2cNQGsxpN-19" value="" style="shape=tableRow;horizontal=0;startSize=0;swimlaneHead=0;swimlaneBody=0;fillColor=none;collapsible=0;dropTarget=0;points=[[0,0.5],[1,0.5]];portConstraint=eastwest;top=0;left=0;right=0;bottom=0;" vertex="1" parent="NgoHyUSWunO2cNQGsxpN-15">
          <mxGeometry y="60" width="180" height="30" as="geometry" />
        </mxCell>
        <mxCell id="NgoHyUSWunO2cNQGsxpN-20" value="" style="shape=partialRectangle;connectable=0;fillColor=none;top=0;left=0;bottom=0;right=0;editable=1;overflow=hidden;whiteSpace=wrap;html=1;" vertex="1" parent="NgoHyUSWunO2cNQGsxpN-19">
          <mxGeometry width="30" height="30" as="geometry">
            <mxRectangle width="30" height="30" as="alternateBounds" />
          </mxGeometry>
        </mxCell>
        <mxCell id="NgoHyUSWunO2cNQGsxpN-21" value="data TIMESTAMPZ NOT NULL&lt;span style=&quot;white-space: pre;&quot;&gt;&#x9;&lt;/span&gt;&lt;span style=&quot;white-space: pre;&quot;&gt;&#x9;&lt;/span&gt;" style="shape=partialRectangle;connectable=0;fillColor=none;top=0;left=0;bottom=0;right=0;align=left;spacingLeft=6;overflow=hidden;whiteSpace=wrap;html=1;" vertex="1" parent="NgoHyUSWunO2cNQGsxpN-19">
          <mxGeometry x="30" width="150" height="30" as="geometry">
            <mxRectangle width="150" height="30" as="alternateBounds" />
          </mxGeometry>
        </mxCell>
        <mxCell id="NgoHyUSWunO2cNQGsxpN-22" value="" style="shape=tableRow;horizontal=0;startSize=0;swimlaneHead=0;swimlaneBody=0;fillColor=none;collapsible=0;dropTarget=0;points=[[0,0.5],[1,0.5]];portConstraint=eastwest;top=0;left=0;right=0;bottom=0;" vertex="1" parent="NgoHyUSWunO2cNQGsxpN-15">
          <mxGeometry y="90" width="180" height="30" as="geometry" />
        </mxCell>
        <mxCell id="NgoHyUSWunO2cNQGsxpN-23" value="FK" style="shape=partialRectangle;connectable=0;fillColor=none;top=0;left=0;bottom=0;right=0;editable=1;overflow=hidden;whiteSpace=wrap;html=1;" vertex="1" parent="NgoHyUSWunO2cNQGsxpN-22">
          <mxGeometry width="30" height="30" as="geometry">
            <mxRectangle width="30" height="30" as="alternateBounds" />
          </mxGeometry>
        </mxCell>
        <mxCell id="NgoHyUSWunO2cNQGsxpN-24" value="id_medico INT NOT NULL" style="shape=partialRectangle;connectable=0;fillColor=none;top=0;left=0;bottom=0;right=0;align=left;spacingLeft=6;overflow=hidden;whiteSpace=wrap;html=1;" vertex="1" parent="NgoHyUSWunO2cNQGsxpN-22">
          <mxGeometry x="30" width="150" height="30" as="geometry">
            <mxRectangle width="150" height="30" as="alternateBounds" />
          </mxGeometry>
        </mxCell>
        <mxCell id="NgoHyUSWunO2cNQGsxpN-25" value="" style="shape=tableRow;horizontal=0;startSize=0;swimlaneHead=0;swimlaneBody=0;fillColor=none;collapsible=0;dropTarget=0;points=[[0,0.5],[1,0.5]];portConstraint=eastwest;top=0;left=0;right=0;bottom=0;" vertex="1" parent="NgoHyUSWunO2cNQGsxpN-15">
          <mxGeometry y="120" width="180" height="30" as="geometry" />
        </mxCell>
        <mxCell id="NgoHyUSWunO2cNQGsxpN-26" value="FK" style="shape=partialRectangle;connectable=0;fillColor=none;top=0;left=0;bottom=0;right=0;editable=1;overflow=hidden;whiteSpace=wrap;html=1;" vertex="1" parent="NgoHyUSWunO2cNQGsxpN-25">
          <mxGeometry width="30" height="30" as="geometry">
            <mxRectangle width="30" height="30" as="alternateBounds" />
          </mxGeometry>
        </mxCell>
        <mxCell id="NgoHyUSWunO2cNQGsxpN-27" value="id_clinica INT NOT NULL" style="shape=partialRectangle;connectable=0;fillColor=none;top=0;left=0;bottom=0;right=0;align=left;spacingLeft=6;overflow=hidden;whiteSpace=wrap;html=1;" vertex="1" parent="NgoHyUSWunO2cNQGsxpN-25">
          <mxGeometry x="30" width="150" height="30" as="geometry">
            <mxRectangle width="150" height="30" as="alternateBounds" />
          </mxGeometry>
        </mxCell>
        <mxCell id="NgoHyUSWunO2cNQGsxpN-28" value="" style="shape=tableRow;horizontal=0;startSize=0;swimlaneHead=0;swimlaneBody=0;fillColor=none;collapsible=0;dropTarget=0;points=[[0,0.5],[1,0.5]];portConstraint=eastwest;top=0;left=0;right=0;bottom=0;" vertex="1" parent="NgoHyUSWunO2cNQGsxpN-15">
          <mxGeometry y="150" width="180" height="30" as="geometry" />
        </mxCell>
        <mxCell id="NgoHyUSWunO2cNQGsxpN-29" value="FK" style="shape=partialRectangle;connectable=0;fillColor=none;top=0;left=0;bottom=0;right=0;editable=1;overflow=hidden;whiteSpace=wrap;html=1;" vertex="1" parent="NgoHyUSWunO2cNQGsxpN-28">
          <mxGeometry width="30" height="30" as="geometry">
            <mxRectangle width="30" height="30" as="alternateBounds" />
          </mxGeometry>
        </mxCell>
        <mxCell id="NgoHyUSWunO2cNQGsxpN-30" value="cpf VARCHAR(11) NOT NULL" style="shape=partialRectangle;connectable=0;fillColor=none;top=0;left=0;bottom=0;right=0;align=left;spacingLeft=6;overflow=hidden;whiteSpace=wrap;html=1;" vertex="1" parent="NgoHyUSWunO2cNQGsxpN-28">
          <mxGeometry x="30" width="150" height="30" as="geometry">
            <mxRectangle width="150" height="30" as="alternateBounds" />
          </mxGeometry>
        </mxCell>
        <mxCell id="FaWqUFQDC28SoVnodlIv-0" value="" style="shape=tableRow;horizontal=0;startSize=0;swimlaneHead=0;swimlaneBody=0;fillColor=none;collapsible=0;dropTarget=0;points=[[0,0.5],[1,0.5]];portConstraint=eastwest;top=0;left=0;right=0;bottom=0;" vertex="1" parent="NgoHyUSWunO2cNQGsxpN-15">
          <mxGeometry y="180" width="180" height="30" as="geometry" />
        </mxCell>
        <mxCell id="FaWqUFQDC28SoVnodlIv-1" value="" style="shape=partialRectangle;connectable=0;fillColor=none;top=0;left=0;bottom=0;right=0;editable=1;overflow=hidden;whiteSpace=wrap;html=1;" vertex="1" parent="FaWqUFQDC28SoVnodlIv-0">
          <mxGeometry width="30" height="30" as="geometry">
            <mxRectangle width="30" height="30" as="alternateBounds" />
          </mxGeometry>
        </mxCell>
        <mxCell id="FaWqUFQDC28SoVnodlIv-2" value="valor NUMERIC(10, 4)&amp;nbsp;" style="shape=partialRectangle;connectable=0;fillColor=none;top=0;left=0;bottom=0;right=0;align=left;spacingLeft=6;overflow=hidden;whiteSpace=wrap;html=1;" vertex="1" parent="FaWqUFQDC28SoVnodlIv-0">
          <mxGeometry x="30" width="150" height="30" as="geometry">
            <mxRectangle width="150" height="30" as="alternateBounds" />
          </mxGeometry>
        </mxCell>
        <mxCell id="NgoHyUSWunO2cNQGsxpN-31" value="Paciente" style="shape=table;startSize=30;container=1;collapsible=1;childLayout=tableLayout;fixedRows=1;rowLines=0;fontStyle=1;align=center;resizeLast=1;html=1;fillColor=#1ba1e2;fontColor=#ffffff;strokeColor=#006EAF;" vertex="1" parent="NgoHyUSWunO2cNQGsxpN-1">
          <mxGeometry x="360" y="320" width="180" height="160" as="geometry" />
        </mxCell>
        <mxCell id="NgoHyUSWunO2cNQGsxpN-32" value="" style="shape=tableRow;horizontal=0;startSize=0;swimlaneHead=0;swimlaneBody=0;fillColor=none;collapsible=0;dropTarget=0;points=[[0,0.5],[1,0.5]];portConstraint=eastwest;top=0;left=0;right=0;bottom=1;" vertex="1" parent="NgoHyUSWunO2cNQGsxpN-31">
          <mxGeometry y="30" width="180" height="30" as="geometry" />
        </mxCell>
        <mxCell id="NgoHyUSWunO2cNQGsxpN-33" value="PK" style="shape=partialRectangle;connectable=0;fillColor=none;top=0;left=0;bottom=0;right=0;fontStyle=1;overflow=hidden;whiteSpace=wrap;html=1;" vertex="1" parent="NgoHyUSWunO2cNQGsxpN-32">
          <mxGeometry width="30" height="30" as="geometry">
            <mxRectangle width="30" height="30" as="alternateBounds" />
          </mxGeometry>
        </mxCell>
        <mxCell id="NgoHyUSWunO2cNQGsxpN-34" value="cpf VARCHAR(11)" style="shape=partialRectangle;connectable=0;fillColor=none;top=0;left=0;bottom=0;right=0;align=left;spacingLeft=6;fontStyle=5;overflow=hidden;whiteSpace=wrap;html=1;" vertex="1" parent="NgoHyUSWunO2cNQGsxpN-32">
          <mxGeometry x="30" width="150" height="30" as="geometry">
            <mxRectangle width="150" height="30" as="alternateBounds" />
          </mxGeometry>
        </mxCell>
        <mxCell id="NgoHyUSWunO2cNQGsxpN-35" value="" style="shape=tableRow;horizontal=0;startSize=0;swimlaneHead=0;swimlaneBody=0;fillColor=none;collapsible=0;dropTarget=0;points=[[0,0.5],[1,0.5]];portConstraint=eastwest;top=0;left=0;right=0;bottom=0;" vertex="1" parent="NgoHyUSWunO2cNQGsxpN-31">
          <mxGeometry y="60" width="180" height="30" as="geometry" />
        </mxCell>
        <mxCell id="NgoHyUSWunO2cNQGsxpN-36" value="" style="shape=partialRectangle;connectable=0;fillColor=none;top=0;left=0;bottom=0;right=0;editable=1;overflow=hidden;whiteSpace=wrap;html=1;" vertex="1" parent="NgoHyUSWunO2cNQGsxpN-35">
          <mxGeometry width="30" height="30" as="geometry">
            <mxRectangle width="30" height="30" as="alternateBounds" />
          </mxGeometry>
        </mxCell>
        <mxCell id="NgoHyUSWunO2cNQGsxpN-37" value="nome TEXT NOT NULL" style="shape=partialRectangle;connectable=0;fillColor=none;top=0;left=0;bottom=0;right=0;align=left;spacingLeft=6;overflow=hidden;whiteSpace=wrap;html=1;" vertex="1" parent="NgoHyUSWunO2cNQGsxpN-35">
          <mxGeometry x="30" width="150" height="30" as="geometry">
            <mxRectangle width="150" height="30" as="alternateBounds" />
          </mxGeometry>
        </mxCell>
        <mxCell id="NgoHyUSWunO2cNQGsxpN-38" value="" style="shape=tableRow;horizontal=0;startSize=0;swimlaneHead=0;swimlaneBody=0;fillColor=none;collapsible=0;dropTarget=0;points=[[0,0.5],[1,0.5]];portConstraint=eastwest;top=0;left=0;right=0;bottom=0;" vertex="1" parent="NgoHyUSWunO2cNQGsxpN-31">
          <mxGeometry y="90" width="180" height="30" as="geometry" />
        </mxCell>
        <mxCell id="NgoHyUSWunO2cNQGsxpN-39" value="" style="shape=partialRectangle;connectable=0;fillColor=none;top=0;left=0;bottom=0;right=0;editable=1;overflow=hidden;whiteSpace=wrap;html=1;" vertex="1" parent="NgoHyUSWunO2cNQGsxpN-38">
          <mxGeometry width="30" height="30" as="geometry">
            <mxRectangle width="30" height="30" as="alternateBounds" />
          </mxGeometry>
        </mxCell>
        <mxCell id="NgoHyUSWunO2cNQGsxpN-40" value="idade INT NOT NULL" style="shape=partialRectangle;connectable=0;fillColor=none;top=0;left=0;bottom=0;right=0;align=left;spacingLeft=6;overflow=hidden;whiteSpace=wrap;html=1;" vertex="1" parent="NgoHyUSWunO2cNQGsxpN-38">
          <mxGeometry x="30" width="150" height="30" as="geometry">
            <mxRectangle width="150" height="30" as="alternateBounds" />
          </mxGeometry>
        </mxCell>
        <mxCell id="NgoHyUSWunO2cNQGsxpN-41" value="" style="shape=tableRow;horizontal=0;startSize=0;swimlaneHead=0;swimlaneBody=0;fillColor=none;collapsible=0;dropTarget=0;points=[[0,0.5],[1,0.5]];portConstraint=eastwest;top=0;left=0;right=0;bottom=0;" vertex="1" parent="NgoHyUSWunO2cNQGsxpN-31">
          <mxGeometry y="120" width="180" height="30" as="geometry" />
        </mxCell>
        <mxCell id="NgoHyUSWunO2cNQGsxpN-42" value="" style="shape=partialRectangle;connectable=0;fillColor=none;top=0;left=0;bottom=0;right=0;editable=1;overflow=hidden;whiteSpace=wrap;html=1;" vertex="1" parent="NgoHyUSWunO2cNQGsxpN-41">
          <mxGeometry width="30" height="30" as="geometry">
            <mxRectangle width="30" height="30" as="alternateBounds" />
          </mxGeometry>
        </mxCell>
        <mxCell id="NgoHyUSWunO2cNQGsxpN-43" value="data_nascimento DATE NOT NULL" style="shape=partialRectangle;connectable=0;fillColor=none;top=0;left=0;bottom=0;right=0;align=left;spacingLeft=6;overflow=hidden;whiteSpace=wrap;html=1;" vertex="1" parent="NgoHyUSWunO2cNQGsxpN-41">
          <mxGeometry x="30" width="150" height="30" as="geometry">
            <mxRectangle width="150" height="30" as="alternateBounds" />
          </mxGeometry>
        </mxCell>
        <mxCell id="NgoHyUSWunO2cNQGsxpN-44" value="Clinica" style="shape=table;startSize=30;container=1;collapsible=1;childLayout=tableLayout;fixedRows=1;rowLines=0;fontStyle=1;align=center;resizeLast=1;html=1;fillColor=#1ba1e2;fontColor=#ffffff;strokeColor=#006EAF;" vertex="1" parent="NgoHyUSWunO2cNQGsxpN-1">
          <mxGeometry x="710" y="85" width="180" height="160" as="geometry" />
        </mxCell>
        <mxCell id="NgoHyUSWunO2cNQGsxpN-45" value="" style="shape=tableRow;horizontal=0;startSize=0;swimlaneHead=0;swimlaneBody=0;fillColor=none;collapsible=0;dropTarget=0;points=[[0,0.5],[1,0.5]];portConstraint=eastwest;top=0;left=0;right=0;bottom=1;" vertex="1" parent="NgoHyUSWunO2cNQGsxpN-44">
          <mxGeometry y="30" width="180" height="30" as="geometry" />
        </mxCell>
        <mxCell id="NgoHyUSWunO2cNQGsxpN-46" value="PK" style="shape=partialRectangle;connectable=0;fillColor=none;top=0;left=0;bottom=0;right=0;fontStyle=1;overflow=hidden;whiteSpace=wrap;html=1;" vertex="1" parent="NgoHyUSWunO2cNQGsxpN-45">
          <mxGeometry width="30" height="30" as="geometry">
            <mxRectangle width="30" height="30" as="alternateBounds" />
          </mxGeometry>
        </mxCell>
        <mxCell id="NgoHyUSWunO2cNQGsxpN-47" value="id_clinica INT&lt;span style=&quot;white-space: pre;&quot;&gt;&#x9;&lt;/span&gt;" style="shape=partialRectangle;connectable=0;fillColor=none;top=0;left=0;bottom=0;right=0;align=left;spacingLeft=6;fontStyle=5;overflow=hidden;whiteSpace=wrap;html=1;" vertex="1" parent="NgoHyUSWunO2cNQGsxpN-45">
          <mxGeometry x="30" width="150" height="30" as="geometry">
            <mxRectangle width="150" height="30" as="alternateBounds" />
          </mxGeometry>
        </mxCell>
        <mxCell id="NgoHyUSWunO2cNQGsxpN-48" value="" style="shape=tableRow;horizontal=0;startSize=0;swimlaneHead=0;swimlaneBody=0;fillColor=none;collapsible=0;dropTarget=0;points=[[0,0.5],[1,0.5]];portConstraint=eastwest;top=0;left=0;right=0;bottom=0;" vertex="1" parent="NgoHyUSWunO2cNQGsxpN-44">
          <mxGeometry y="60" width="180" height="30" as="geometry" />
        </mxCell>
        <mxCell id="NgoHyUSWunO2cNQGsxpN-49" value="" style="shape=partialRectangle;connectable=0;fillColor=none;top=0;left=0;bottom=0;right=0;editable=1;overflow=hidden;whiteSpace=wrap;html=1;" vertex="1" parent="NgoHyUSWunO2cNQGsxpN-48">
          <mxGeometry width="30" height="30" as="geometry">
            <mxRectangle width="30" height="30" as="alternateBounds" />
          </mxGeometry>
        </mxCell>
        <mxCell id="NgoHyUSWunO2cNQGsxpN-50" value="nome TEXT NOT NULL" style="shape=partialRectangle;connectable=0;fillColor=none;top=0;left=0;bottom=0;right=0;align=left;spacingLeft=6;overflow=hidden;whiteSpace=wrap;html=1;" vertex="1" parent="NgoHyUSWunO2cNQGsxpN-48">
          <mxGeometry x="30" width="150" height="30" as="geometry">
            <mxRectangle width="150" height="30" as="alternateBounds" />
          </mxGeometry>
        </mxCell>
        <mxCell id="NgoHyUSWunO2cNQGsxpN-51" value="" style="shape=tableRow;horizontal=0;startSize=0;swimlaneHead=0;swimlaneBody=0;fillColor=none;collapsible=0;dropTarget=0;points=[[0,0.5],[1,0.5]];portConstraint=eastwest;top=0;left=0;right=0;bottom=0;" vertex="1" parent="NgoHyUSWunO2cNQGsxpN-44">
          <mxGeometry y="90" width="180" height="30" as="geometry" />
        </mxCell>
        <mxCell id="NgoHyUSWunO2cNQGsxpN-52" value="" style="shape=partialRectangle;connectable=0;fillColor=none;top=0;left=0;bottom=0;right=0;editable=1;overflow=hidden;whiteSpace=wrap;html=1;" vertex="1" parent="NgoHyUSWunO2cNQGsxpN-51">
          <mxGeometry width="30" height="30" as="geometry">
            <mxRectangle width="30" height="30" as="alternateBounds" />
          </mxGeometry>
        </mxCell>
        <mxCell id="NgoHyUSWunO2cNQGsxpN-53" value="endereco TEXT NOT NULL" style="shape=partialRectangle;connectable=0;fillColor=none;top=0;left=0;bottom=0;right=0;align=left;spacingLeft=6;overflow=hidden;whiteSpace=wrap;html=1;" vertex="1" parent="NgoHyUSWunO2cNQGsxpN-51">
          <mxGeometry x="30" width="150" height="30" as="geometry">
            <mxRectangle width="150" height="30" as="alternateBounds" />
          </mxGeometry>
        </mxCell>
        <mxCell id="NgoHyUSWunO2cNQGsxpN-54" value="" style="shape=tableRow;horizontal=0;startSize=0;swimlaneHead=0;swimlaneBody=0;fillColor=none;collapsible=0;dropTarget=0;points=[[0,0.5],[1,0.5]];portConstraint=eastwest;top=0;left=0;right=0;bottom=0;" vertex="1" parent="NgoHyUSWunO2cNQGsxpN-44">
          <mxGeometry y="120" width="180" height="30" as="geometry" />
        </mxCell>
        <mxCell id="NgoHyUSWunO2cNQGsxpN-55" value="" style="shape=partialRectangle;connectable=0;fillColor=none;top=0;left=0;bottom=0;right=0;editable=1;overflow=hidden;whiteSpace=wrap;html=1;" vertex="1" parent="NgoHyUSWunO2cNQGsxpN-54">
          <mxGeometry width="30" height="30" as="geometry">
            <mxRectangle width="30" height="30" as="alternateBounds" />
          </mxGeometry>
        </mxCell>
        <mxCell id="NgoHyUSWunO2cNQGsxpN-56" value="descricao TEXT" style="shape=partialRectangle;connectable=0;fillColor=none;top=0;left=0;bottom=0;right=0;align=left;spacingLeft=6;overflow=hidden;whiteSpace=wrap;html=1;" vertex="1" parent="NgoHyUSWunO2cNQGsxpN-54">
          <mxGeometry x="30" width="150" height="30" as="geometry">
            <mxRectangle width="150" height="30" as="alternateBounds" />
          </mxGeometry>
        </mxCell>
        <mxCell id="NgoHyUSWunO2cNQGsxpN-57" value="" style="edgeStyle=entityRelationEdgeStyle;fontSize=12;html=1;endArrow=ERoneToMany;rounded=0;exitX=1;exitY=0.5;exitDx=0;exitDy=0;" edge="1" parent="NgoHyUSWunO2cNQGsxpN-1" source="NgoHyUSWunO2cNQGsxpN-3">
          <mxGeometry width="100" height="100" relative="1" as="geometry">
            <mxPoint x="250" y="210" as="sourcePoint" />
            <mxPoint x="370" y="180" as="targetPoint" />
            <Array as="points">
              <mxPoint x="250" y="160" />
            </Array>
          </mxGeometry>
        </mxCell>
        <mxCell id="NgoHyUSWunO2cNQGsxpN-58" value="" style="edgeStyle=entityRelationEdgeStyle;fontSize=12;html=1;endArrow=ERoneToMany;rounded=0;entryX=1;entryY=0.86;entryDx=0;entryDy=0;exitX=0;exitY=0.5;exitDx=0;exitDy=0;entryPerimeter=0;" edge="1" parent="NgoHyUSWunO2cNQGsxpN-1" source="NgoHyUSWunO2cNQGsxpN-45" target="NgoHyUSWunO2cNQGsxpN-25">
          <mxGeometry width="100" height="100" relative="1" as="geometry">
            <mxPoint x="620" y="130" as="sourcePoint" />
            <mxPoint x="630" y="260" as="targetPoint" />
          </mxGeometry>
        </mxCell>
        <mxCell id="NgoHyUSWunO2cNQGsxpN-59" value="" style="edgeStyle=entityRelationEdgeStyle;fontSize=12;html=1;endArrow=ERoneToMany;rounded=0;exitX=1.004;exitY=0.767;exitDx=0;exitDy=0;exitPerimeter=0;" edge="1" parent="NgoHyUSWunO2cNQGsxpN-1" source="NgoHyUSWunO2cNQGsxpN-32">
          <mxGeometry width="100" height="100" relative="1" as="geometry">
            <mxPoint x="360" y="390" as="sourcePoint" />
            <mxPoint x="370" y="250" as="targetPoint" />
          </mxGeometry>
        </mxCell>
      </root>
    </mxGraphModel>
  </diagram>
  <diagram name="Logico - ECommerc" id="C9a66eP5TuyHpVAnUSG1">
    <mxGraphModel dx="1489" dy="803" grid="1" gridSize="10" guides="1" tooltips="1" connect="1" arrows="1" fold="1" page="1" pageScale="1" pageWidth="827" pageHeight="1169" math="0" shadow="0">
      <root>
        <mxCell id="-8aZpj58rmTRZZp_yqJu-0" />
        <mxCell id="-8aZpj58rmTRZZp_yqJu-1" parent="-8aZpj58rmTRZZp_yqJu-0" />
        <mxCell id="-8aZpj58rmTRZZp_yqJu-2" value="Cliente" style="shape=table;startSize=30;container=1;collapsible=1;childLayout=tableLayout;fixedRows=1;rowLines=0;fontStyle=1;align=center;resizeLast=1;html=1;fillColor=#1ba1e2;fontColor=#ffffff;strokeColor=#006EAF;" parent="-8aZpj58rmTRZZp_yqJu-1" vertex="1">
          <mxGeometry x="30" y="40" width="180" height="220" as="geometry" />
        </mxCell>
        <mxCell id="-8aZpj58rmTRZZp_yqJu-3" value="" style="shape=tableRow;horizontal=0;startSize=0;swimlaneHead=0;swimlaneBody=0;fillColor=none;collapsible=0;dropTarget=0;points=[[0,0.5],[1,0.5]];portConstraint=eastwest;top=0;left=0;right=0;bottom=1;" parent="-8aZpj58rmTRZZp_yqJu-2" vertex="1">
          <mxGeometry y="30" width="180" height="30" as="geometry" />
        </mxCell>
        <mxCell id="-8aZpj58rmTRZZp_yqJu-4" value="PK" style="shape=partialRectangle;connectable=0;fillColor=none;top=0;left=0;bottom=0;right=0;fontStyle=1;overflow=hidden;whiteSpace=wrap;html=1;" parent="-8aZpj58rmTRZZp_yqJu-3" vertex="1">
          <mxGeometry width="30" height="30" as="geometry">
            <mxRectangle width="30" height="30" as="alternateBounds" />
          </mxGeometry>
        </mxCell>
        <mxCell id="-8aZpj58rmTRZZp_yqJu-5" value="id_cliente" style="shape=partialRectangle;connectable=0;fillColor=none;top=0;left=0;bottom=0;right=0;align=left;spacingLeft=6;fontStyle=5;overflow=hidden;whiteSpace=wrap;html=1;" parent="-8aZpj58rmTRZZp_yqJu-3" vertex="1">
          <mxGeometry x="30" width="150" height="30" as="geometry">
            <mxRectangle width="150" height="30" as="alternateBounds" />
          </mxGeometry>
        </mxCell>
        <mxCell id="-8aZpj58rmTRZZp_yqJu-6" value="" style="shape=tableRow;horizontal=0;startSize=0;swimlaneHead=0;swimlaneBody=0;fillColor=none;collapsible=0;dropTarget=0;points=[[0,0.5],[1,0.5]];portConstraint=eastwest;top=0;left=0;right=0;bottom=0;" parent="-8aZpj58rmTRZZp_yqJu-2" vertex="1">
          <mxGeometry y="60" width="180" height="30" as="geometry" />
        </mxCell>
        <mxCell id="-8aZpj58rmTRZZp_yqJu-7" value="" style="shape=partialRectangle;connectable=0;fillColor=none;top=0;left=0;bottom=0;right=0;editable=1;overflow=hidden;whiteSpace=wrap;html=1;" parent="-8aZpj58rmTRZZp_yqJu-6" vertex="1">
          <mxGeometry width="30" height="30" as="geometry">
            <mxRectangle width="30" height="30" as="alternateBounds" />
          </mxGeometry>
        </mxCell>
        <mxCell id="-8aZpj58rmTRZZp_yqJu-8" value="nome_completo" style="shape=partialRectangle;connectable=0;fillColor=none;top=0;left=0;bottom=0;right=0;align=left;spacingLeft=6;overflow=hidden;whiteSpace=wrap;html=1;" parent="-8aZpj58rmTRZZp_yqJu-6" vertex="1">
          <mxGeometry x="30" width="150" height="30" as="geometry">
            <mxRectangle width="150" height="30" as="alternateBounds" />
          </mxGeometry>
        </mxCell>
        <mxCell id="-8aZpj58rmTRZZp_yqJu-9" value="" style="shape=tableRow;horizontal=0;startSize=0;swimlaneHead=0;swimlaneBody=0;fillColor=none;collapsible=0;dropTarget=0;points=[[0,0.5],[1,0.5]];portConstraint=eastwest;top=0;left=0;right=0;bottom=0;" parent="-8aZpj58rmTRZZp_yqJu-2" vertex="1">
          <mxGeometry y="90" width="180" height="30" as="geometry" />
        </mxCell>
        <mxCell id="-8aZpj58rmTRZZp_yqJu-10" value="" style="shape=partialRectangle;connectable=0;fillColor=none;top=0;left=0;bottom=0;right=0;editable=1;overflow=hidden;whiteSpace=wrap;html=1;" parent="-8aZpj58rmTRZZp_yqJu-9" vertex="1">
          <mxGeometry width="30" height="30" as="geometry">
            <mxRectangle width="30" height="30" as="alternateBounds" />
          </mxGeometry>
        </mxCell>
        <mxCell id="-8aZpj58rmTRZZp_yqJu-11" value="email" style="shape=partialRectangle;connectable=0;fillColor=none;top=0;left=0;bottom=0;right=0;align=left;spacingLeft=6;overflow=hidden;whiteSpace=wrap;html=1;" parent="-8aZpj58rmTRZZp_yqJu-9" vertex="1">
          <mxGeometry x="30" width="150" height="30" as="geometry">
            <mxRectangle width="150" height="30" as="alternateBounds" />
          </mxGeometry>
        </mxCell>
        <mxCell id="-8aZpj58rmTRZZp_yqJu-12" value="" style="shape=tableRow;horizontal=0;startSize=0;swimlaneHead=0;swimlaneBody=0;fillColor=none;collapsible=0;dropTarget=0;points=[[0,0.5],[1,0.5]];portConstraint=eastwest;top=0;left=0;right=0;bottom=0;" parent="-8aZpj58rmTRZZp_yqJu-2" vertex="1">
          <mxGeometry y="120" width="180" height="30" as="geometry" />
        </mxCell>
        <mxCell id="-8aZpj58rmTRZZp_yqJu-13" value="" style="shape=partialRectangle;connectable=0;fillColor=none;top=0;left=0;bottom=0;right=0;editable=1;overflow=hidden;whiteSpace=wrap;html=1;" parent="-8aZpj58rmTRZZp_yqJu-12" vertex="1">
          <mxGeometry width="30" height="30" as="geometry">
            <mxRectangle width="30" height="30" as="alternateBounds" />
          </mxGeometry>
        </mxCell>
        <mxCell id="-8aZpj58rmTRZZp_yqJu-14" value="senha" style="shape=partialRectangle;connectable=0;fillColor=none;top=0;left=0;bottom=0;right=0;align=left;spacingLeft=6;overflow=hidden;whiteSpace=wrap;html=1;" parent="-8aZpj58rmTRZZp_yqJu-12" vertex="1">
          <mxGeometry x="30" width="150" height="30" as="geometry">
            <mxRectangle width="150" height="30" as="alternateBounds" />
          </mxGeometry>
        </mxCell>
        <mxCell id="gRA6kr-nYzpIWbhV32LC-0" value="" style="shape=tableRow;horizontal=0;startSize=0;swimlaneHead=0;swimlaneBody=0;fillColor=none;collapsible=0;dropTarget=0;points=[[0,0.5],[1,0.5]];portConstraint=eastwest;top=0;left=0;right=0;bottom=0;" parent="-8aZpj58rmTRZZp_yqJu-2" vertex="1">
          <mxGeometry y="150" width="180" height="30" as="geometry" />
        </mxCell>
        <mxCell id="gRA6kr-nYzpIWbhV32LC-1" value="" style="shape=partialRectangle;connectable=0;fillColor=none;top=0;left=0;bottom=0;right=0;editable=1;overflow=hidden;whiteSpace=wrap;html=1;" parent="gRA6kr-nYzpIWbhV32LC-0" vertex="1">
          <mxGeometry width="30" height="30" as="geometry">
            <mxRectangle width="30" height="30" as="alternateBounds" />
          </mxGeometry>
        </mxCell>
        <mxCell id="gRA6kr-nYzpIWbhV32LC-2" value="telefone" style="shape=partialRectangle;connectable=0;fillColor=none;top=0;left=0;bottom=0;right=0;align=left;spacingLeft=6;overflow=hidden;whiteSpace=wrap;html=1;" parent="gRA6kr-nYzpIWbhV32LC-0" vertex="1">
          <mxGeometry x="30" width="150" height="30" as="geometry">
            <mxRectangle width="150" height="30" as="alternateBounds" />
          </mxGeometry>
        </mxCell>
        <mxCell id="gRA6kr-nYzpIWbhV32LC-3" value="" style="shape=tableRow;horizontal=0;startSize=0;swimlaneHead=0;swimlaneBody=0;fillColor=none;collapsible=0;dropTarget=0;points=[[0,0.5],[1,0.5]];portConstraint=eastwest;top=0;left=0;right=0;bottom=0;" parent="-8aZpj58rmTRZZp_yqJu-2" vertex="1">
          <mxGeometry y="180" width="180" height="30" as="geometry" />
        </mxCell>
        <mxCell id="gRA6kr-nYzpIWbhV32LC-4" value="" style="shape=partialRectangle;connectable=0;fillColor=none;top=0;left=0;bottom=0;right=0;editable=1;overflow=hidden;whiteSpace=wrap;html=1;" parent="gRA6kr-nYzpIWbhV32LC-3" vertex="1">
          <mxGeometry width="30" height="30" as="geometry">
            <mxRectangle width="30" height="30" as="alternateBounds" />
          </mxGeometry>
        </mxCell>
        <mxCell id="gRA6kr-nYzpIWbhV32LC-5" value="data_cadastro" style="shape=partialRectangle;connectable=0;fillColor=none;top=0;left=0;bottom=0;right=0;align=left;spacingLeft=6;overflow=hidden;whiteSpace=wrap;html=1;" parent="gRA6kr-nYzpIWbhV32LC-3" vertex="1">
          <mxGeometry x="30" width="150" height="30" as="geometry">
            <mxRectangle width="150" height="30" as="alternateBounds" />
          </mxGeometry>
        </mxCell>
        <mxCell id="-8aZpj58rmTRZZp_yqJu-15" value="Produto" style="shape=table;startSize=30;container=1;collapsible=1;childLayout=tableLayout;fixedRows=1;rowLines=0;fontStyle=1;align=center;resizeLast=1;html=1;fillColor=#1ba1e2;fontColor=#ffffff;strokeColor=#006EAF;" parent="-8aZpj58rmTRZZp_yqJu-1" vertex="1">
          <mxGeometry x="130" y="360" width="180" height="210" as="geometry" />
        </mxCell>
        <mxCell id="-8aZpj58rmTRZZp_yqJu-16" value="" style="shape=tableRow;horizontal=0;startSize=0;swimlaneHead=0;swimlaneBody=0;fillColor=none;collapsible=0;dropTarget=0;points=[[0,0.5],[1,0.5]];portConstraint=eastwest;top=0;left=0;right=0;bottom=1;" parent="-8aZpj58rmTRZZp_yqJu-15" vertex="1">
          <mxGeometry y="30" width="180" height="30" as="geometry" />
        </mxCell>
        <mxCell id="-8aZpj58rmTRZZp_yqJu-17" value="PK" style="shape=partialRectangle;connectable=0;fillColor=none;top=0;left=0;bottom=0;right=0;fontStyle=1;overflow=hidden;whiteSpace=wrap;html=1;" parent="-8aZpj58rmTRZZp_yqJu-16" vertex="1">
          <mxGeometry width="30" height="30" as="geometry">
            <mxRectangle width="30" height="30" as="alternateBounds" />
          </mxGeometry>
        </mxCell>
        <mxCell id="-8aZpj58rmTRZZp_yqJu-18" value="id_produto" style="shape=partialRectangle;connectable=0;fillColor=none;top=0;left=0;bottom=0;right=0;align=left;spacingLeft=6;fontStyle=5;overflow=hidden;whiteSpace=wrap;html=1;" parent="-8aZpj58rmTRZZp_yqJu-16" vertex="1">
          <mxGeometry x="30" width="150" height="30" as="geometry">
            <mxRectangle width="150" height="30" as="alternateBounds" />
          </mxGeometry>
        </mxCell>
        <mxCell id="-8aZpj58rmTRZZp_yqJu-19" value="" style="shape=tableRow;horizontal=0;startSize=0;swimlaneHead=0;swimlaneBody=0;fillColor=none;collapsible=0;dropTarget=0;points=[[0,0.5],[1,0.5]];portConstraint=eastwest;top=0;left=0;right=0;bottom=0;" parent="-8aZpj58rmTRZZp_yqJu-15" vertex="1">
          <mxGeometry y="60" width="180" height="30" as="geometry" />
        </mxCell>
        <mxCell id="-8aZpj58rmTRZZp_yqJu-20" value="" style="shape=partialRectangle;connectable=0;fillColor=none;top=0;left=0;bottom=0;right=0;editable=1;overflow=hidden;whiteSpace=wrap;html=1;" parent="-8aZpj58rmTRZZp_yqJu-19" vertex="1">
          <mxGeometry width="30" height="30" as="geometry">
            <mxRectangle width="30" height="30" as="alternateBounds" />
          </mxGeometry>
        </mxCell>
        <mxCell id="-8aZpj58rmTRZZp_yqJu-21" value="nome_produto" style="shape=partialRectangle;connectable=0;fillColor=none;top=0;left=0;bottom=0;right=0;align=left;spacingLeft=6;overflow=hidden;whiteSpace=wrap;html=1;" parent="-8aZpj58rmTRZZp_yqJu-19" vertex="1">
          <mxGeometry x="30" width="150" height="30" as="geometry">
            <mxRectangle width="150" height="30" as="alternateBounds" />
          </mxGeometry>
        </mxCell>
        <mxCell id="-8aZpj58rmTRZZp_yqJu-22" value="" style="shape=tableRow;horizontal=0;startSize=0;swimlaneHead=0;swimlaneBody=0;fillColor=none;collapsible=0;dropTarget=0;points=[[0,0.5],[1,0.5]];portConstraint=eastwest;top=0;left=0;right=0;bottom=0;" parent="-8aZpj58rmTRZZp_yqJu-15" vertex="1">
          <mxGeometry y="90" width="180" height="30" as="geometry" />
        </mxCell>
        <mxCell id="-8aZpj58rmTRZZp_yqJu-23" value="" style="shape=partialRectangle;connectable=0;fillColor=none;top=0;left=0;bottom=0;right=0;editable=1;overflow=hidden;whiteSpace=wrap;html=1;" parent="-8aZpj58rmTRZZp_yqJu-22" vertex="1">
          <mxGeometry width="30" height="30" as="geometry">
            <mxRectangle width="30" height="30" as="alternateBounds" />
          </mxGeometry>
        </mxCell>
        <mxCell id="-8aZpj58rmTRZZp_yqJu-24" value="descricao" style="shape=partialRectangle;connectable=0;fillColor=none;top=0;left=0;bottom=0;right=0;align=left;spacingLeft=6;overflow=hidden;whiteSpace=wrap;html=1;" parent="-8aZpj58rmTRZZp_yqJu-22" vertex="1">
          <mxGeometry x="30" width="150" height="30" as="geometry">
            <mxRectangle width="150" height="30" as="alternateBounds" />
          </mxGeometry>
        </mxCell>
        <mxCell id="-8aZpj58rmTRZZp_yqJu-25" value="" style="shape=tableRow;horizontal=0;startSize=0;swimlaneHead=0;swimlaneBody=0;fillColor=none;collapsible=0;dropTarget=0;points=[[0,0.5],[1,0.5]];portConstraint=eastwest;top=0;left=0;right=0;bottom=0;" parent="-8aZpj58rmTRZZp_yqJu-15" vertex="1">
          <mxGeometry y="120" width="180" height="30" as="geometry" />
        </mxCell>
        <mxCell id="-8aZpj58rmTRZZp_yqJu-26" value="" style="shape=partialRectangle;connectable=0;fillColor=none;top=0;left=0;bottom=0;right=0;editable=1;overflow=hidden;whiteSpace=wrap;html=1;" parent="-8aZpj58rmTRZZp_yqJu-25" vertex="1">
          <mxGeometry width="30" height="30" as="geometry">
            <mxRectangle width="30" height="30" as="alternateBounds" />
          </mxGeometry>
        </mxCell>
        <mxCell id="-8aZpj58rmTRZZp_yqJu-27" value="preco" style="shape=partialRectangle;connectable=0;fillColor=none;top=0;left=0;bottom=0;right=0;align=left;spacingLeft=6;overflow=hidden;whiteSpace=wrap;html=1;" parent="-8aZpj58rmTRZZp_yqJu-25" vertex="1">
          <mxGeometry x="30" width="150" height="30" as="geometry">
            <mxRectangle width="150" height="30" as="alternateBounds" />
          </mxGeometry>
        </mxCell>
        <mxCell id="-8aZpj58rmTRZZp_yqJu-28" value="" style="shape=tableRow;horizontal=0;startSize=0;swimlaneHead=0;swimlaneBody=0;fillColor=none;collapsible=0;dropTarget=0;points=[[0,0.5],[1,0.5]];portConstraint=eastwest;top=0;left=0;right=0;bottom=0;" parent="-8aZpj58rmTRZZp_yqJu-15" vertex="1">
          <mxGeometry y="150" width="180" height="30" as="geometry" />
        </mxCell>
        <mxCell id="-8aZpj58rmTRZZp_yqJu-29" value="" style="shape=partialRectangle;connectable=0;fillColor=none;top=0;left=0;bottom=0;right=0;editable=1;overflow=hidden;whiteSpace=wrap;html=1;" parent="-8aZpj58rmTRZZp_yqJu-28" vertex="1">
          <mxGeometry width="30" height="30" as="geometry">
            <mxRectangle width="30" height="30" as="alternateBounds" />
          </mxGeometry>
        </mxCell>
        <mxCell id="-8aZpj58rmTRZZp_yqJu-30" value="estoque_disponivel" style="shape=partialRectangle;connectable=0;fillColor=none;top=0;left=0;bottom=0;right=0;align=left;spacingLeft=6;overflow=hidden;whiteSpace=wrap;html=1;" parent="-8aZpj58rmTRZZp_yqJu-28" vertex="1">
          <mxGeometry x="30" width="150" height="30" as="geometry">
            <mxRectangle width="150" height="30" as="alternateBounds" />
          </mxGeometry>
        </mxCell>
        <mxCell id="gRA6kr-nYzpIWbhV32LC-6" value="" style="shape=tableRow;horizontal=0;startSize=0;swimlaneHead=0;swimlaneBody=0;fillColor=none;collapsible=0;dropTarget=0;points=[[0,0.5],[1,0.5]];portConstraint=eastwest;top=0;left=0;right=0;bottom=0;" parent="-8aZpj58rmTRZZp_yqJu-15" vertex="1">
          <mxGeometry y="180" width="180" height="30" as="geometry" />
        </mxCell>
        <mxCell id="gRA6kr-nYzpIWbhV32LC-7" value="" style="shape=partialRectangle;connectable=0;fillColor=none;top=0;left=0;bottom=0;right=0;editable=1;overflow=hidden;whiteSpace=wrap;html=1;" parent="gRA6kr-nYzpIWbhV32LC-6" vertex="1">
          <mxGeometry width="30" height="30" as="geometry">
            <mxRectangle width="30" height="30" as="alternateBounds" />
          </mxGeometry>
        </mxCell>
        <mxCell id="gRA6kr-nYzpIWbhV32LC-8" value="imagem_url" style="shape=partialRectangle;connectable=0;fillColor=none;top=0;left=0;bottom=0;right=0;align=left;spacingLeft=6;overflow=hidden;whiteSpace=wrap;html=1;" parent="gRA6kr-nYzpIWbhV32LC-6" vertex="1">
          <mxGeometry x="30" width="150" height="30" as="geometry">
            <mxRectangle width="150" height="30" as="alternateBounds" />
          </mxGeometry>
        </mxCell>
        <mxCell id="-8aZpj58rmTRZZp_yqJu-31" value="Pagamento" style="shape=table;startSize=30;container=1;collapsible=1;childLayout=tableLayout;fixedRows=1;rowLines=0;fontStyle=1;align=center;resizeLast=1;html=1;fillColor=#1ba1e2;fontColor=#ffffff;strokeColor=#006EAF;" parent="-8aZpj58rmTRZZp_yqJu-1" vertex="1">
          <mxGeometry x="590" y="30" width="180" height="190" as="geometry" />
        </mxCell>
        <mxCell id="-8aZpj58rmTRZZp_yqJu-32" value="" style="shape=tableRow;horizontal=0;startSize=0;swimlaneHead=0;swimlaneBody=0;fillColor=none;collapsible=0;dropTarget=0;points=[[0,0.5],[1,0.5]];portConstraint=eastwest;top=0;left=0;right=0;bottom=1;" parent="-8aZpj58rmTRZZp_yqJu-31" vertex="1">
          <mxGeometry y="30" width="180" height="30" as="geometry" />
        </mxCell>
        <mxCell id="-8aZpj58rmTRZZp_yqJu-33" value="PK" style="shape=partialRectangle;connectable=0;fillColor=none;top=0;left=0;bottom=0;right=0;fontStyle=1;overflow=hidden;whiteSpace=wrap;html=1;" parent="-8aZpj58rmTRZZp_yqJu-32" vertex="1">
          <mxGeometry width="30" height="30" as="geometry">
            <mxRectangle width="30" height="30" as="alternateBounds" />
          </mxGeometry>
        </mxCell>
        <mxCell id="-8aZpj58rmTRZZp_yqJu-34" value="id_pagamento" style="shape=partialRectangle;connectable=0;fillColor=none;top=0;left=0;bottom=0;right=0;align=left;spacingLeft=6;fontStyle=5;overflow=hidden;whiteSpace=wrap;html=1;" parent="-8aZpj58rmTRZZp_yqJu-32" vertex="1">
          <mxGeometry x="30" width="150" height="30" as="geometry">
            <mxRectangle width="150" height="30" as="alternateBounds" />
          </mxGeometry>
        </mxCell>
        <mxCell id="-8aZpj58rmTRZZp_yqJu-35" value="" style="shape=tableRow;horizontal=0;startSize=0;swimlaneHead=0;swimlaneBody=0;fillColor=none;collapsible=0;dropTarget=0;points=[[0,0.5],[1,0.5]];portConstraint=eastwest;top=0;left=0;right=0;bottom=0;" parent="-8aZpj58rmTRZZp_yqJu-31" vertex="1">
          <mxGeometry y="60" width="180" height="30" as="geometry" />
        </mxCell>
        <mxCell id="-8aZpj58rmTRZZp_yqJu-36" value="FK" style="shape=partialRectangle;connectable=0;fillColor=none;top=0;left=0;bottom=0;right=0;editable=1;overflow=hidden;whiteSpace=wrap;html=1;" parent="-8aZpj58rmTRZZp_yqJu-35" vertex="1">
          <mxGeometry width="30" height="30" as="geometry">
            <mxRectangle width="30" height="30" as="alternateBounds" />
          </mxGeometry>
        </mxCell>
        <mxCell id="-8aZpj58rmTRZZp_yqJu-37" value="id_pedido" style="shape=partialRectangle;connectable=0;fillColor=none;top=0;left=0;bottom=0;right=0;align=left;spacingLeft=6;overflow=hidden;whiteSpace=wrap;html=1;" parent="-8aZpj58rmTRZZp_yqJu-35" vertex="1">
          <mxGeometry x="30" width="150" height="30" as="geometry">
            <mxRectangle width="150" height="30" as="alternateBounds" />
          </mxGeometry>
        </mxCell>
        <mxCell id="-8aZpj58rmTRZZp_yqJu-38" value="" style="shape=tableRow;horizontal=0;startSize=0;swimlaneHead=0;swimlaneBody=0;fillColor=none;collapsible=0;dropTarget=0;points=[[0,0.5],[1,0.5]];portConstraint=eastwest;top=0;left=0;right=0;bottom=0;" parent="-8aZpj58rmTRZZp_yqJu-31" vertex="1">
          <mxGeometry y="90" width="180" height="30" as="geometry" />
        </mxCell>
        <mxCell id="-8aZpj58rmTRZZp_yqJu-39" value="" style="shape=partialRectangle;connectable=0;fillColor=none;top=0;left=0;bottom=0;right=0;editable=1;overflow=hidden;whiteSpace=wrap;html=1;" parent="-8aZpj58rmTRZZp_yqJu-38" vertex="1">
          <mxGeometry width="30" height="30" as="geometry">
            <mxRectangle width="30" height="30" as="alternateBounds" />
          </mxGeometry>
        </mxCell>
        <mxCell id="-8aZpj58rmTRZZp_yqJu-40" value="forma_pagamento" style="shape=partialRectangle;connectable=0;fillColor=none;top=0;left=0;bottom=0;right=0;align=left;spacingLeft=6;overflow=hidden;whiteSpace=wrap;html=1;" parent="-8aZpj58rmTRZZp_yqJu-38" vertex="1">
          <mxGeometry x="30" width="150" height="30" as="geometry">
            <mxRectangle width="150" height="30" as="alternateBounds" />
          </mxGeometry>
        </mxCell>
        <mxCell id="-8aZpj58rmTRZZp_yqJu-41" value="" style="shape=tableRow;horizontal=0;startSize=0;swimlaneHead=0;swimlaneBody=0;fillColor=none;collapsible=0;dropTarget=0;points=[[0,0.5],[1,0.5]];portConstraint=eastwest;top=0;left=0;right=0;bottom=0;" parent="-8aZpj58rmTRZZp_yqJu-31" vertex="1">
          <mxGeometry y="120" width="180" height="30" as="geometry" />
        </mxCell>
        <mxCell id="-8aZpj58rmTRZZp_yqJu-42" value="" style="shape=partialRectangle;connectable=0;fillColor=none;top=0;left=0;bottom=0;right=0;editable=1;overflow=hidden;whiteSpace=wrap;html=1;" parent="-8aZpj58rmTRZZp_yqJu-41" vertex="1">
          <mxGeometry width="30" height="30" as="geometry">
            <mxRectangle width="30" height="30" as="alternateBounds" />
          </mxGeometry>
        </mxCell>
        <mxCell id="-8aZpj58rmTRZZp_yqJu-43" value="status" style="shape=partialRectangle;connectable=0;fillColor=none;top=0;left=0;bottom=0;right=0;align=left;spacingLeft=6;overflow=hidden;whiteSpace=wrap;html=1;" parent="-8aZpj58rmTRZZp_yqJu-41" vertex="1">
          <mxGeometry x="30" width="150" height="30" as="geometry">
            <mxRectangle width="150" height="30" as="alternateBounds" />
          </mxGeometry>
        </mxCell>
        <mxCell id="gRA6kr-nYzpIWbhV32LC-12" value="" style="shape=tableRow;horizontal=0;startSize=0;swimlaneHead=0;swimlaneBody=0;fillColor=none;collapsible=0;dropTarget=0;points=[[0,0.5],[1,0.5]];portConstraint=eastwest;top=0;left=0;right=0;bottom=0;" parent="-8aZpj58rmTRZZp_yqJu-31" vertex="1">
          <mxGeometry y="150" width="180" height="30" as="geometry" />
        </mxCell>
        <mxCell id="gRA6kr-nYzpIWbhV32LC-13" value="" style="shape=partialRectangle;connectable=0;fillColor=none;top=0;left=0;bottom=0;right=0;editable=1;overflow=hidden;whiteSpace=wrap;html=1;" parent="gRA6kr-nYzpIWbhV32LC-12" vertex="1">
          <mxGeometry width="30" height="30" as="geometry">
            <mxRectangle width="30" height="30" as="alternateBounds" />
          </mxGeometry>
        </mxCell>
        <mxCell id="gRA6kr-nYzpIWbhV32LC-14" value="data_pagamento" style="shape=partialRectangle;connectable=0;fillColor=none;top=0;left=0;bottom=0;right=0;align=left;spacingLeft=6;overflow=hidden;whiteSpace=wrap;html=1;" parent="gRA6kr-nYzpIWbhV32LC-12" vertex="1">
          <mxGeometry x="30" width="150" height="30" as="geometry">
            <mxRectangle width="150" height="30" as="alternateBounds" />
          </mxGeometry>
        </mxCell>
        <mxCell id="-8aZpj58rmTRZZp_yqJu-44" value="Pedido" style="shape=table;startSize=30;container=1;collapsible=1;childLayout=tableLayout;fixedRows=1;rowLines=0;fontStyle=1;align=center;resizeLast=1;html=1;fillColor=#1ba1e2;fontColor=#ffffff;strokeColor=#006EAF;" parent="-8aZpj58rmTRZZp_yqJu-1" vertex="1">
          <mxGeometry x="280" y="40" width="180" height="190" as="geometry" />
        </mxCell>
        <mxCell id="-8aZpj58rmTRZZp_yqJu-45" value="" style="shape=tableRow;horizontal=0;startSize=0;swimlaneHead=0;swimlaneBody=0;fillColor=none;collapsible=0;dropTarget=0;points=[[0,0.5],[1,0.5]];portConstraint=eastwest;top=0;left=0;right=0;bottom=1;" parent="-8aZpj58rmTRZZp_yqJu-44" vertex="1">
          <mxGeometry y="30" width="180" height="30" as="geometry" />
        </mxCell>
        <mxCell id="-8aZpj58rmTRZZp_yqJu-46" value="PK" style="shape=partialRectangle;connectable=0;fillColor=none;top=0;left=0;bottom=0;right=0;fontStyle=1;overflow=hidden;whiteSpace=wrap;html=1;" parent="-8aZpj58rmTRZZp_yqJu-45" vertex="1">
          <mxGeometry width="30" height="30" as="geometry">
            <mxRectangle width="30" height="30" as="alternateBounds" />
          </mxGeometry>
        </mxCell>
        <mxCell id="-8aZpj58rmTRZZp_yqJu-47" value="id_pedido" style="shape=partialRectangle;connectable=0;fillColor=none;top=0;left=0;bottom=0;right=0;align=left;spacingLeft=6;fontStyle=5;overflow=hidden;whiteSpace=wrap;html=1;" parent="-8aZpj58rmTRZZp_yqJu-45" vertex="1">
          <mxGeometry x="30" width="150" height="30" as="geometry">
            <mxRectangle width="150" height="30" as="alternateBounds" />
          </mxGeometry>
        </mxCell>
        <mxCell id="-8aZpj58rmTRZZp_yqJu-48" value="" style="shape=tableRow;horizontal=0;startSize=0;swimlaneHead=0;swimlaneBody=0;fillColor=none;collapsible=0;dropTarget=0;points=[[0,0.5],[1,0.5]];portConstraint=eastwest;top=0;left=0;right=0;bottom=0;" parent="-8aZpj58rmTRZZp_yqJu-44" vertex="1">
          <mxGeometry y="60" width="180" height="30" as="geometry" />
        </mxCell>
        <mxCell id="-8aZpj58rmTRZZp_yqJu-49" value="" style="shape=partialRectangle;connectable=0;fillColor=none;top=0;left=0;bottom=0;right=0;editable=1;overflow=hidden;whiteSpace=wrap;html=1;" parent="-8aZpj58rmTRZZp_yqJu-48" vertex="1">
          <mxGeometry width="30" height="30" as="geometry">
            <mxRectangle width="30" height="30" as="alternateBounds" />
          </mxGeometry>
        </mxCell>
        <mxCell id="-8aZpj58rmTRZZp_yqJu-50" value="data_pedido" style="shape=partialRectangle;connectable=0;fillColor=none;top=0;left=0;bottom=0;right=0;align=left;spacingLeft=6;overflow=hidden;whiteSpace=wrap;html=1;" parent="-8aZpj58rmTRZZp_yqJu-48" vertex="1">
          <mxGeometry x="30" width="150" height="30" as="geometry">
            <mxRectangle width="150" height="30" as="alternateBounds" />
          </mxGeometry>
        </mxCell>
        <mxCell id="-8aZpj58rmTRZZp_yqJu-51" value="" style="shape=tableRow;horizontal=0;startSize=0;swimlaneHead=0;swimlaneBody=0;fillColor=none;collapsible=0;dropTarget=0;points=[[0,0.5],[1,0.5]];portConstraint=eastwest;top=0;left=0;right=0;bottom=0;" parent="-8aZpj58rmTRZZp_yqJu-44" vertex="1">
          <mxGeometry y="90" width="180" height="30" as="geometry" />
        </mxCell>
        <mxCell id="-8aZpj58rmTRZZp_yqJu-52" value="" style="shape=partialRectangle;connectable=0;fillColor=none;top=0;left=0;bottom=0;right=0;editable=1;overflow=hidden;whiteSpace=wrap;html=1;" parent="-8aZpj58rmTRZZp_yqJu-51" vertex="1">
          <mxGeometry width="30" height="30" as="geometry">
            <mxRectangle width="30" height="30" as="alternateBounds" />
          </mxGeometry>
        </mxCell>
        <mxCell id="-8aZpj58rmTRZZp_yqJu-53" value="valor_total" style="shape=partialRectangle;connectable=0;fillColor=none;top=0;left=0;bottom=0;right=0;align=left;spacingLeft=6;overflow=hidden;whiteSpace=wrap;html=1;" parent="-8aZpj58rmTRZZp_yqJu-51" vertex="1">
          <mxGeometry x="30" width="150" height="30" as="geometry">
            <mxRectangle width="150" height="30" as="alternateBounds" />
          </mxGeometry>
        </mxCell>
        <mxCell id="-8aZpj58rmTRZZp_yqJu-54" value="" style="shape=tableRow;horizontal=0;startSize=0;swimlaneHead=0;swimlaneBody=0;fillColor=none;collapsible=0;dropTarget=0;points=[[0,0.5],[1,0.5]];portConstraint=eastwest;top=0;left=0;right=0;bottom=0;" parent="-8aZpj58rmTRZZp_yqJu-44" vertex="1">
          <mxGeometry y="120" width="180" height="30" as="geometry" />
        </mxCell>
        <mxCell id="-8aZpj58rmTRZZp_yqJu-55" value="" style="shape=partialRectangle;connectable=0;fillColor=none;top=0;left=0;bottom=0;right=0;editable=1;overflow=hidden;whiteSpace=wrap;html=1;" parent="-8aZpj58rmTRZZp_yqJu-54" vertex="1">
          <mxGeometry width="30" height="30" as="geometry">
            <mxRectangle width="30" height="30" as="alternateBounds" />
          </mxGeometry>
        </mxCell>
        <mxCell id="-8aZpj58rmTRZZp_yqJu-56" value="status" style="shape=partialRectangle;connectable=0;fillColor=none;top=0;left=0;bottom=0;right=0;align=left;spacingLeft=6;overflow=hidden;whiteSpace=wrap;html=1;" parent="-8aZpj58rmTRZZp_yqJu-54" vertex="1">
          <mxGeometry x="30" width="150" height="30" as="geometry">
            <mxRectangle width="150" height="30" as="alternateBounds" />
          </mxGeometry>
        </mxCell>
        <mxCell id="gRA6kr-nYzpIWbhV32LC-9" value="" style="shape=tableRow;horizontal=0;startSize=0;swimlaneHead=0;swimlaneBody=0;fillColor=none;collapsible=0;dropTarget=0;points=[[0,0.5],[1,0.5]];portConstraint=eastwest;top=0;left=0;right=0;bottom=0;" parent="-8aZpj58rmTRZZp_yqJu-44" vertex="1">
          <mxGeometry y="150" width="180" height="30" as="geometry" />
        </mxCell>
        <mxCell id="gRA6kr-nYzpIWbhV32LC-10" value="FK" style="shape=partialRectangle;connectable=0;fillColor=none;top=0;left=0;bottom=0;right=0;editable=1;overflow=hidden;whiteSpace=wrap;html=1;" parent="gRA6kr-nYzpIWbhV32LC-9" vertex="1">
          <mxGeometry width="30" height="30" as="geometry">
            <mxRectangle width="30" height="30" as="alternateBounds" />
          </mxGeometry>
        </mxCell>
        <mxCell id="gRA6kr-nYzpIWbhV32LC-11" value="id_cliente" style="shape=partialRectangle;connectable=0;fillColor=none;top=0;left=0;bottom=0;right=0;align=left;spacingLeft=6;overflow=hidden;whiteSpace=wrap;html=1;" parent="gRA6kr-nYzpIWbhV32LC-9" vertex="1">
          <mxGeometry x="30" width="150" height="30" as="geometry">
            <mxRectangle width="150" height="30" as="alternateBounds" />
          </mxGeometry>
        </mxCell>
        <mxCell id="w9GpWEeJu2Jcf-Vp_Ghm-30" value="Item_do_pedido" style="shape=table;startSize=30;container=1;collapsible=1;childLayout=tableLayout;fixedRows=1;rowLines=0;fontStyle=1;align=center;resizeLast=1;html=1;fillColor=#1ba1e2;fontColor=#ffffff;strokeColor=#006EAF;" parent="-8aZpj58rmTRZZp_yqJu-1" vertex="1">
          <mxGeometry x="360" y="250" width="180" height="160" as="geometry" />
        </mxCell>
        <mxCell id="w9GpWEeJu2Jcf-Vp_Ghm-31" value="" style="shape=tableRow;horizontal=0;startSize=0;swimlaneHead=0;swimlaneBody=0;fillColor=none;collapsible=0;dropTarget=0;points=[[0,0.5],[1,0.5]];portConstraint=eastwest;top=0;left=0;right=0;bottom=1;" parent="w9GpWEeJu2Jcf-Vp_Ghm-30" vertex="1">
          <mxGeometry y="30" width="180" height="30" as="geometry" />
        </mxCell>
        <mxCell id="w9GpWEeJu2Jcf-Vp_Ghm-32" value="PK" style="shape=partialRectangle;connectable=0;fillColor=none;top=0;left=0;bottom=0;right=0;fontStyle=1;overflow=hidden;whiteSpace=wrap;html=1;" parent="w9GpWEeJu2Jcf-Vp_Ghm-31" vertex="1">
          <mxGeometry width="30" height="30" as="geometry">
            <mxRectangle width="30" height="30" as="alternateBounds" />
          </mxGeometry>
        </mxCell>
        <mxCell id="w9GpWEeJu2Jcf-Vp_Ghm-33" value="id_item" style="shape=partialRectangle;connectable=0;fillColor=none;top=0;left=0;bottom=0;right=0;align=left;spacingLeft=6;fontStyle=5;overflow=hidden;whiteSpace=wrap;html=1;" parent="w9GpWEeJu2Jcf-Vp_Ghm-31" vertex="1">
          <mxGeometry x="30" width="150" height="30" as="geometry">
            <mxRectangle width="150" height="30" as="alternateBounds" />
          </mxGeometry>
        </mxCell>
        <mxCell id="w9GpWEeJu2Jcf-Vp_Ghm-37" value="" style="shape=tableRow;horizontal=0;startSize=0;swimlaneHead=0;swimlaneBody=0;fillColor=none;collapsible=0;dropTarget=0;points=[[0,0.5],[1,0.5]];portConstraint=eastwest;top=0;left=0;right=0;bottom=0;" parent="w9GpWEeJu2Jcf-Vp_Ghm-30" vertex="1">
          <mxGeometry y="60" width="180" height="30" as="geometry" />
        </mxCell>
        <mxCell id="w9GpWEeJu2Jcf-Vp_Ghm-38" value="FK" style="shape=partialRectangle;connectable=0;fillColor=none;top=0;left=0;bottom=0;right=0;editable=1;overflow=hidden;whiteSpace=wrap;html=1;" parent="w9GpWEeJu2Jcf-Vp_Ghm-37" vertex="1">
          <mxGeometry width="30" height="30" as="geometry">
            <mxRectangle width="30" height="30" as="alternateBounds" />
          </mxGeometry>
        </mxCell>
        <mxCell id="w9GpWEeJu2Jcf-Vp_Ghm-39" value="id_pedido" style="shape=partialRectangle;connectable=0;fillColor=none;top=0;left=0;bottom=0;right=0;align=left;spacingLeft=6;overflow=hidden;whiteSpace=wrap;html=1;" parent="w9GpWEeJu2Jcf-Vp_Ghm-37" vertex="1">
          <mxGeometry x="30" width="150" height="30" as="geometry">
            <mxRectangle width="150" height="30" as="alternateBounds" />
          </mxGeometry>
        </mxCell>
        <mxCell id="w9GpWEeJu2Jcf-Vp_Ghm-40" value="" style="shape=tableRow;horizontal=0;startSize=0;swimlaneHead=0;swimlaneBody=0;fillColor=none;collapsible=0;dropTarget=0;points=[[0,0.5],[1,0.5]];portConstraint=eastwest;top=0;left=0;right=0;bottom=0;" parent="w9GpWEeJu2Jcf-Vp_Ghm-30" vertex="1">
          <mxGeometry y="90" width="180" height="30" as="geometry" />
        </mxCell>
        <mxCell id="w9GpWEeJu2Jcf-Vp_Ghm-41" value="FK" style="shape=partialRectangle;connectable=0;fillColor=none;top=0;left=0;bottom=0;right=0;editable=1;overflow=hidden;whiteSpace=wrap;html=1;" parent="w9GpWEeJu2Jcf-Vp_Ghm-40" vertex="1">
          <mxGeometry width="30" height="30" as="geometry">
            <mxRectangle width="30" height="30" as="alternateBounds" />
          </mxGeometry>
        </mxCell>
        <mxCell id="w9GpWEeJu2Jcf-Vp_Ghm-42" value="id_produto" style="shape=partialRectangle;connectable=0;fillColor=none;top=0;left=0;bottom=0;right=0;align=left;spacingLeft=6;overflow=hidden;whiteSpace=wrap;html=1;" parent="w9GpWEeJu2Jcf-Vp_Ghm-40" vertex="1">
          <mxGeometry x="30" width="150" height="30" as="geometry">
            <mxRectangle width="150" height="30" as="alternateBounds" />
          </mxGeometry>
        </mxCell>
        <mxCell id="6TCRKEAaFtCsl807WZaq-0" value="" style="shape=tableRow;horizontal=0;startSize=0;swimlaneHead=0;swimlaneBody=0;fillColor=none;collapsible=0;dropTarget=0;points=[[0,0.5],[1,0.5]];portConstraint=eastwest;top=0;left=0;right=0;bottom=0;" vertex="1" parent="w9GpWEeJu2Jcf-Vp_Ghm-30">
          <mxGeometry y="120" width="180" height="30" as="geometry" />
        </mxCell>
        <mxCell id="6TCRKEAaFtCsl807WZaq-1" value="" style="shape=partialRectangle;connectable=0;fillColor=none;top=0;left=0;bottom=0;right=0;editable=1;overflow=hidden;whiteSpace=wrap;html=1;" vertex="1" parent="6TCRKEAaFtCsl807WZaq-0">
          <mxGeometry width="30" height="30" as="geometry">
            <mxRectangle width="30" height="30" as="alternateBounds" />
          </mxGeometry>
        </mxCell>
        <mxCell id="6TCRKEAaFtCsl807WZaq-2" value="quantidade" style="shape=partialRectangle;connectable=0;fillColor=none;top=0;left=0;bottom=0;right=0;align=left;spacingLeft=6;overflow=hidden;whiteSpace=wrap;html=1;" vertex="1" parent="6TCRKEAaFtCsl807WZaq-0">
          <mxGeometry x="30" width="150" height="30" as="geometry">
            <mxRectangle width="150" height="30" as="alternateBounds" />
          </mxGeometry>
        </mxCell>
        <mxCell id="z7tDAbjwL-fw7J6qn9UA-0" value="" style="edgeStyle=entityRelationEdgeStyle;fontSize=12;html=1;endArrow=ERoneToMany;rounded=0;exitX=1;exitY=0.5;exitDx=0;exitDy=0;entryX=0;entryY=0.5;entryDx=0;entryDy=0;" parent="-8aZpj58rmTRZZp_yqJu-1" source="-8aZpj58rmTRZZp_yqJu-3" target="gRA6kr-nYzpIWbhV32LC-9" edge="1">
          <mxGeometry width="100" height="100" relative="1" as="geometry">
            <mxPoint x="270" y="200" as="sourcePoint" />
            <mxPoint x="370" y="100" as="targetPoint" />
          </mxGeometry>
        </mxCell>
        <mxCell id="rpHiiWUOx_6DC5FG5TLX-0" value="" style="edgeStyle=entityRelationEdgeStyle;fontSize=12;html=1;endArrow=ERoneToMany;rounded=0;exitX=1;exitY=0.5;exitDx=0;exitDy=0;entryX=0;entryY=0.5;entryDx=0;entryDy=0;" parent="-8aZpj58rmTRZZp_yqJu-1" edge="1" target="w9GpWEeJu2Jcf-Vp_Ghm-37" source="-8aZpj58rmTRZZp_yqJu-16">
          <mxGeometry width="100" height="100" relative="1" as="geometry">
            <mxPoint x="605.99" y="577.52" as="sourcePoint" />
            <mxPoint x="430" y="380" as="targetPoint" />
            <Array as="points">
              <mxPoint x="745.99" y="512.52" />
            </Array>
          </mxGeometry>
        </mxCell>
        <mxCell id="nlg-CIU90exVXNm-uS7x-0" value="" style="edgeStyle=entityRelationEdgeStyle;fontSize=12;html=1;endArrow=ERoneToMany;rounded=0;exitX=1;exitY=0.5;exitDx=0;exitDy=0;" parent="-8aZpj58rmTRZZp_yqJu-1" source="-8aZpj58rmTRZZp_yqJu-45" target="w9GpWEeJu2Jcf-Vp_Ghm-37" edge="1">
          <mxGeometry width="100" height="100" relative="1" as="geometry">
            <mxPoint x="727" y="340" as="sourcePoint" />
            <mxPoint x="827" y="240" as="targetPoint" />
          </mxGeometry>
        </mxCell>
        <mxCell id="aoxqM_mHZEQb7RxDib7h-0" value="" style="edgeStyle=entityRelationEdgeStyle;fontSize=12;html=1;endArrow=ERzeroToOne;startArrow=ERmandOne;rounded=0;entryX=0;entryY=0.5;entryDx=0;entryDy=0;exitX=0.985;exitY=0.186;exitDx=0;exitDy=0;exitPerimeter=0;" parent="-8aZpj58rmTRZZp_yqJu-1" source="-8aZpj58rmTRZZp_yqJu-45" target="-8aZpj58rmTRZZp_yqJu-32" edge="1">
          <mxGeometry width="100" height="100" relative="1" as="geometry">
            <mxPoint x="610" y="70" as="sourcePoint" />
            <mxPoint x="841.6200000000001" y="105.86999999999995" as="targetPoint" />
            <Array as="points">
              <mxPoint x="650" y="40" />
            </Array>
          </mxGeometry>
        </mxCell>
      </root>
    </mxGraphModel>
  </diagram>
  <diagram name="Fisico - ECommerc" id="3BTjBLlaA9grlWyOT0Be">
    <mxGraphModel dx="1042" dy="562" grid="1" gridSize="10" guides="1" tooltips="1" connect="1" arrows="1" fold="1" page="1" pageScale="1" pageWidth="827" pageHeight="1169" math="0" shadow="0">
      <root>
        <mxCell id="e0r5O9GiikNs2WocUQRt-0" />
        <mxCell id="e0r5O9GiikNs2WocUQRt-1" parent="e0r5O9GiikNs2WocUQRt-0" />
        <mxCell id="e0r5O9GiikNs2WocUQRt-2" value="Cliente" style="shape=table;startSize=30;container=1;collapsible=1;childLayout=tableLayout;fixedRows=1;rowLines=0;fontStyle=1;align=center;resizeLast=1;html=1;fillColor=#1ba1e2;fontColor=#ffffff;strokeColor=#006EAF;" vertex="1" parent="e0r5O9GiikNs2WocUQRt-1">
          <mxGeometry x="30" y="40" width="180" height="220" as="geometry" />
        </mxCell>
        <mxCell id="e0r5O9GiikNs2WocUQRt-3" value="" style="shape=tableRow;horizontal=0;startSize=0;swimlaneHead=0;swimlaneBody=0;fillColor=none;collapsible=0;dropTarget=0;points=[[0,0.5],[1,0.5]];portConstraint=eastwest;top=0;left=0;right=0;bottom=1;" vertex="1" parent="e0r5O9GiikNs2WocUQRt-2">
          <mxGeometry y="30" width="180" height="30" as="geometry" />
        </mxCell>
        <mxCell id="e0r5O9GiikNs2WocUQRt-4" value="PK" style="shape=partialRectangle;connectable=0;fillColor=none;top=0;left=0;bottom=0;right=0;fontStyle=1;overflow=hidden;whiteSpace=wrap;html=1;" vertex="1" parent="e0r5O9GiikNs2WocUQRt-3">
          <mxGeometry width="30" height="30" as="geometry">
            <mxRectangle width="30" height="30" as="alternateBounds" />
          </mxGeometry>
        </mxCell>
        <mxCell id="e0r5O9GiikNs2WocUQRt-5" value="id_cliente INT" style="shape=partialRectangle;connectable=0;fillColor=none;top=0;left=0;bottom=0;right=0;align=left;spacingLeft=6;fontStyle=5;overflow=hidden;whiteSpace=wrap;html=1;" vertex="1" parent="e0r5O9GiikNs2WocUQRt-3">
          <mxGeometry x="30" width="150" height="30" as="geometry">
            <mxRectangle width="150" height="30" as="alternateBounds" />
          </mxGeometry>
        </mxCell>
        <mxCell id="e0r5O9GiikNs2WocUQRt-6" value="" style="shape=tableRow;horizontal=0;startSize=0;swimlaneHead=0;swimlaneBody=0;fillColor=none;collapsible=0;dropTarget=0;points=[[0,0.5],[1,0.5]];portConstraint=eastwest;top=0;left=0;right=0;bottom=0;" vertex="1" parent="e0r5O9GiikNs2WocUQRt-2">
          <mxGeometry y="60" width="180" height="30" as="geometry" />
        </mxCell>
        <mxCell id="e0r5O9GiikNs2WocUQRt-7" value="" style="shape=partialRectangle;connectable=0;fillColor=none;top=0;left=0;bottom=0;right=0;editable=1;overflow=hidden;whiteSpace=wrap;html=1;" vertex="1" parent="e0r5O9GiikNs2WocUQRt-6">
          <mxGeometry width="30" height="30" as="geometry">
            <mxRectangle width="30" height="30" as="alternateBounds" />
          </mxGeometry>
        </mxCell>
        <mxCell id="e0r5O9GiikNs2WocUQRt-8" value="nome_completo TEXT NOT NULL" style="shape=partialRectangle;connectable=0;fillColor=none;top=0;left=0;bottom=0;right=0;align=left;spacingLeft=6;overflow=hidden;whiteSpace=wrap;html=1;" vertex="1" parent="e0r5O9GiikNs2WocUQRt-6">
          <mxGeometry x="30" width="150" height="30" as="geometry">
            <mxRectangle width="150" height="30" as="alternateBounds" />
          </mxGeometry>
        </mxCell>
        <mxCell id="e0r5O9GiikNs2WocUQRt-9" value="" style="shape=tableRow;horizontal=0;startSize=0;swimlaneHead=0;swimlaneBody=0;fillColor=none;collapsible=0;dropTarget=0;points=[[0,0.5],[1,0.5]];portConstraint=eastwest;top=0;left=0;right=0;bottom=0;" vertex="1" parent="e0r5O9GiikNs2WocUQRt-2">
          <mxGeometry y="90" width="180" height="30" as="geometry" />
        </mxCell>
        <mxCell id="e0r5O9GiikNs2WocUQRt-10" value="" style="shape=partialRectangle;connectable=0;fillColor=none;top=0;left=0;bottom=0;right=0;editable=1;overflow=hidden;whiteSpace=wrap;html=1;" vertex="1" parent="e0r5O9GiikNs2WocUQRt-9">
          <mxGeometry width="30" height="30" as="geometry">
            <mxRectangle width="30" height="30" as="alternateBounds" />
          </mxGeometry>
        </mxCell>
        <mxCell id="e0r5O9GiikNs2WocUQRt-11" value="email TEXT NOT NULL" style="shape=partialRectangle;connectable=0;fillColor=none;top=0;left=0;bottom=0;right=0;align=left;spacingLeft=6;overflow=hidden;whiteSpace=wrap;html=1;" vertex="1" parent="e0r5O9GiikNs2WocUQRt-9">
          <mxGeometry x="30" width="150" height="30" as="geometry">
            <mxRectangle width="150" height="30" as="alternateBounds" />
          </mxGeometry>
        </mxCell>
        <mxCell id="e0r5O9GiikNs2WocUQRt-12" value="" style="shape=tableRow;horizontal=0;startSize=0;swimlaneHead=0;swimlaneBody=0;fillColor=none;collapsible=0;dropTarget=0;points=[[0,0.5],[1,0.5]];portConstraint=eastwest;top=0;left=0;right=0;bottom=0;" vertex="1" parent="e0r5O9GiikNs2WocUQRt-2">
          <mxGeometry y="120" width="180" height="30" as="geometry" />
        </mxCell>
        <mxCell id="e0r5O9GiikNs2WocUQRt-13" value="" style="shape=partialRectangle;connectable=0;fillColor=none;top=0;left=0;bottom=0;right=0;editable=1;overflow=hidden;whiteSpace=wrap;html=1;" vertex="1" parent="e0r5O9GiikNs2WocUQRt-12">
          <mxGeometry width="30" height="30" as="geometry">
            <mxRectangle width="30" height="30" as="alternateBounds" />
          </mxGeometry>
        </mxCell>
        <mxCell id="e0r5O9GiikNs2WocUQRt-14" value="senha TEXT NOT NULL" style="shape=partialRectangle;connectable=0;fillColor=none;top=0;left=0;bottom=0;right=0;align=left;spacingLeft=6;overflow=hidden;whiteSpace=wrap;html=1;" vertex="1" parent="e0r5O9GiikNs2WocUQRt-12">
          <mxGeometry x="30" width="150" height="30" as="geometry">
            <mxRectangle width="150" height="30" as="alternateBounds" />
          </mxGeometry>
        </mxCell>
        <mxCell id="e0r5O9GiikNs2WocUQRt-15" value="" style="shape=tableRow;horizontal=0;startSize=0;swimlaneHead=0;swimlaneBody=0;fillColor=none;collapsible=0;dropTarget=0;points=[[0,0.5],[1,0.5]];portConstraint=eastwest;top=0;left=0;right=0;bottom=0;" vertex="1" parent="e0r5O9GiikNs2WocUQRt-2">
          <mxGeometry y="150" width="180" height="30" as="geometry" />
        </mxCell>
        <mxCell id="e0r5O9GiikNs2WocUQRt-16" value="" style="shape=partialRectangle;connectable=0;fillColor=none;top=0;left=0;bottom=0;right=0;editable=1;overflow=hidden;whiteSpace=wrap;html=1;" vertex="1" parent="e0r5O9GiikNs2WocUQRt-15">
          <mxGeometry width="30" height="30" as="geometry">
            <mxRectangle width="30" height="30" as="alternateBounds" />
          </mxGeometry>
        </mxCell>
        <mxCell id="e0r5O9GiikNs2WocUQRt-17" value="telefone VARCHAR(11) NOT NULL" style="shape=partialRectangle;connectable=0;fillColor=none;top=0;left=0;bottom=0;right=0;align=left;spacingLeft=6;overflow=hidden;whiteSpace=wrap;html=1;" vertex="1" parent="e0r5O9GiikNs2WocUQRt-15">
          <mxGeometry x="30" width="150" height="30" as="geometry">
            <mxRectangle width="150" height="30" as="alternateBounds" />
          </mxGeometry>
        </mxCell>
        <mxCell id="e0r5O9GiikNs2WocUQRt-18" value="" style="shape=tableRow;horizontal=0;startSize=0;swimlaneHead=0;swimlaneBody=0;fillColor=none;collapsible=0;dropTarget=0;points=[[0,0.5],[1,0.5]];portConstraint=eastwest;top=0;left=0;right=0;bottom=0;" vertex="1" parent="e0r5O9GiikNs2WocUQRt-2">
          <mxGeometry y="180" width="180" height="30" as="geometry" />
        </mxCell>
        <mxCell id="e0r5O9GiikNs2WocUQRt-19" value="" style="shape=partialRectangle;connectable=0;fillColor=none;top=0;left=0;bottom=0;right=0;editable=1;overflow=hidden;whiteSpace=wrap;html=1;" vertex="1" parent="e0r5O9GiikNs2WocUQRt-18">
          <mxGeometry width="30" height="30" as="geometry">
            <mxRectangle width="30" height="30" as="alternateBounds" />
          </mxGeometry>
        </mxCell>
        <mxCell id="e0r5O9GiikNs2WocUQRt-20" value="data_cadastro TIMESTAMPZ NOT NULL" style="shape=partialRectangle;connectable=0;fillColor=none;top=0;left=0;bottom=0;right=0;align=left;spacingLeft=6;overflow=hidden;whiteSpace=wrap;html=1;" vertex="1" parent="e0r5O9GiikNs2WocUQRt-18">
          <mxGeometry x="30" width="150" height="30" as="geometry">
            <mxRectangle width="150" height="30" as="alternateBounds" />
          </mxGeometry>
        </mxCell>
        <mxCell id="e0r5O9GiikNs2WocUQRt-21" value="Produto" style="shape=table;startSize=30;container=1;collapsible=1;childLayout=tableLayout;fixedRows=1;rowLines=0;fontStyle=1;align=center;resizeLast=1;html=1;fillColor=#1ba1e2;fontColor=#ffffff;strokeColor=#006EAF;" vertex="1" parent="e0r5O9GiikNs2WocUQRt-1">
          <mxGeometry x="130" y="360" width="180" height="210" as="geometry" />
        </mxCell>
        <mxCell id="e0r5O9GiikNs2WocUQRt-22" value="" style="shape=tableRow;horizontal=0;startSize=0;swimlaneHead=0;swimlaneBody=0;fillColor=none;collapsible=0;dropTarget=0;points=[[0,0.5],[1,0.5]];portConstraint=eastwest;top=0;left=0;right=0;bottom=1;" vertex="1" parent="e0r5O9GiikNs2WocUQRt-21">
          <mxGeometry y="30" width="180" height="30" as="geometry" />
        </mxCell>
        <mxCell id="e0r5O9GiikNs2WocUQRt-23" value="PK" style="shape=partialRectangle;connectable=0;fillColor=none;top=0;left=0;bottom=0;right=0;fontStyle=1;overflow=hidden;whiteSpace=wrap;html=1;" vertex="1" parent="e0r5O9GiikNs2WocUQRt-22">
          <mxGeometry width="30" height="30" as="geometry">
            <mxRectangle width="30" height="30" as="alternateBounds" />
          </mxGeometry>
        </mxCell>
        <mxCell id="e0r5O9GiikNs2WocUQRt-24" value="id_produto" style="shape=partialRectangle;connectable=0;fillColor=none;top=0;left=0;bottom=0;right=0;align=left;spacingLeft=6;fontStyle=5;overflow=hidden;whiteSpace=wrap;html=1;" vertex="1" parent="e0r5O9GiikNs2WocUQRt-22">
          <mxGeometry x="30" width="150" height="30" as="geometry">
            <mxRectangle width="150" height="30" as="alternateBounds" />
          </mxGeometry>
        </mxCell>
        <mxCell id="e0r5O9GiikNs2WocUQRt-25" value="" style="shape=tableRow;horizontal=0;startSize=0;swimlaneHead=0;swimlaneBody=0;fillColor=none;collapsible=0;dropTarget=0;points=[[0,0.5],[1,0.5]];portConstraint=eastwest;top=0;left=0;right=0;bottom=0;" vertex="1" parent="e0r5O9GiikNs2WocUQRt-21">
          <mxGeometry y="60" width="180" height="30" as="geometry" />
        </mxCell>
        <mxCell id="e0r5O9GiikNs2WocUQRt-26" value="" style="shape=partialRectangle;connectable=0;fillColor=none;top=0;left=0;bottom=0;right=0;editable=1;overflow=hidden;whiteSpace=wrap;html=1;" vertex="1" parent="e0r5O9GiikNs2WocUQRt-25">
          <mxGeometry width="30" height="30" as="geometry">
            <mxRectangle width="30" height="30" as="alternateBounds" />
          </mxGeometry>
        </mxCell>
        <mxCell id="e0r5O9GiikNs2WocUQRt-27" value="nome_produto TEXT NOT NULL" style="shape=partialRectangle;connectable=0;fillColor=none;top=0;left=0;bottom=0;right=0;align=left;spacingLeft=6;overflow=hidden;whiteSpace=wrap;html=1;" vertex="1" parent="e0r5O9GiikNs2WocUQRt-25">
          <mxGeometry x="30" width="150" height="30" as="geometry">
            <mxRectangle width="150" height="30" as="alternateBounds" />
          </mxGeometry>
        </mxCell>
        <mxCell id="e0r5O9GiikNs2WocUQRt-28" value="" style="shape=tableRow;horizontal=0;startSize=0;swimlaneHead=0;swimlaneBody=0;fillColor=none;collapsible=0;dropTarget=0;points=[[0,0.5],[1,0.5]];portConstraint=eastwest;top=0;left=0;right=0;bottom=0;" vertex="1" parent="e0r5O9GiikNs2WocUQRt-21">
          <mxGeometry y="90" width="180" height="30" as="geometry" />
        </mxCell>
        <mxCell id="e0r5O9GiikNs2WocUQRt-29" value="" style="shape=partialRectangle;connectable=0;fillColor=none;top=0;left=0;bottom=0;right=0;editable=1;overflow=hidden;whiteSpace=wrap;html=1;" vertex="1" parent="e0r5O9GiikNs2WocUQRt-28">
          <mxGeometry width="30" height="30" as="geometry">
            <mxRectangle width="30" height="30" as="alternateBounds" />
          </mxGeometry>
        </mxCell>
        <mxCell id="e0r5O9GiikNs2WocUQRt-30" value="descricao TEXT" style="shape=partialRectangle;connectable=0;fillColor=none;top=0;left=0;bottom=0;right=0;align=left;spacingLeft=6;overflow=hidden;whiteSpace=wrap;html=1;" vertex="1" parent="e0r5O9GiikNs2WocUQRt-28">
          <mxGeometry x="30" width="150" height="30" as="geometry">
            <mxRectangle width="150" height="30" as="alternateBounds" />
          </mxGeometry>
        </mxCell>
        <mxCell id="e0r5O9GiikNs2WocUQRt-31" value="" style="shape=tableRow;horizontal=0;startSize=0;swimlaneHead=0;swimlaneBody=0;fillColor=none;collapsible=0;dropTarget=0;points=[[0,0.5],[1,0.5]];portConstraint=eastwest;top=0;left=0;right=0;bottom=0;" vertex="1" parent="e0r5O9GiikNs2WocUQRt-21">
          <mxGeometry y="120" width="180" height="30" as="geometry" />
        </mxCell>
        <mxCell id="e0r5O9GiikNs2WocUQRt-32" value="" style="shape=partialRectangle;connectable=0;fillColor=none;top=0;left=0;bottom=0;right=0;editable=1;overflow=hidden;whiteSpace=wrap;html=1;" vertex="1" parent="e0r5O9GiikNs2WocUQRt-31">
          <mxGeometry width="30" height="30" as="geometry">
            <mxRectangle width="30" height="30" as="alternateBounds" />
          </mxGeometry>
        </mxCell>
        <mxCell id="e0r5O9GiikNs2WocUQRt-33" value="preco NUMERIC(10,4) NOT NULL" style="shape=partialRectangle;connectable=0;fillColor=none;top=0;left=0;bottom=0;right=0;align=left;spacingLeft=6;overflow=hidden;whiteSpace=wrap;html=1;" vertex="1" parent="e0r5O9GiikNs2WocUQRt-31">
          <mxGeometry x="30" width="150" height="30" as="geometry">
            <mxRectangle width="150" height="30" as="alternateBounds" />
          </mxGeometry>
        </mxCell>
        <mxCell id="e0r5O9GiikNs2WocUQRt-34" value="" style="shape=tableRow;horizontal=0;startSize=0;swimlaneHead=0;swimlaneBody=0;fillColor=none;collapsible=0;dropTarget=0;points=[[0,0.5],[1,0.5]];portConstraint=eastwest;top=0;left=0;right=0;bottom=0;" vertex="1" parent="e0r5O9GiikNs2WocUQRt-21">
          <mxGeometry y="150" width="180" height="30" as="geometry" />
        </mxCell>
        <mxCell id="e0r5O9GiikNs2WocUQRt-35" value="" style="shape=partialRectangle;connectable=0;fillColor=none;top=0;left=0;bottom=0;right=0;editable=1;overflow=hidden;whiteSpace=wrap;html=1;" vertex="1" parent="e0r5O9GiikNs2WocUQRt-34">
          <mxGeometry width="30" height="30" as="geometry">
            <mxRectangle width="30" height="30" as="alternateBounds" />
          </mxGeometry>
        </mxCell>
        <mxCell id="e0r5O9GiikNs2WocUQRt-36" value="estoque_disponivel INT NOT NULL" style="shape=partialRectangle;connectable=0;fillColor=none;top=0;left=0;bottom=0;right=0;align=left;spacingLeft=6;overflow=hidden;whiteSpace=wrap;html=1;" vertex="1" parent="e0r5O9GiikNs2WocUQRt-34">
          <mxGeometry x="30" width="150" height="30" as="geometry">
            <mxRectangle width="150" height="30" as="alternateBounds" />
          </mxGeometry>
        </mxCell>
        <mxCell id="e0r5O9GiikNs2WocUQRt-37" value="" style="shape=tableRow;horizontal=0;startSize=0;swimlaneHead=0;swimlaneBody=0;fillColor=none;collapsible=0;dropTarget=0;points=[[0,0.5],[1,0.5]];portConstraint=eastwest;top=0;left=0;right=0;bottom=0;" vertex="1" parent="e0r5O9GiikNs2WocUQRt-21">
          <mxGeometry y="180" width="180" height="30" as="geometry" />
        </mxCell>
        <mxCell id="e0r5O9GiikNs2WocUQRt-38" value="" style="shape=partialRectangle;connectable=0;fillColor=none;top=0;left=0;bottom=0;right=0;editable=1;overflow=hidden;whiteSpace=wrap;html=1;" vertex="1" parent="e0r5O9GiikNs2WocUQRt-37">
          <mxGeometry width="30" height="30" as="geometry">
            <mxRectangle width="30" height="30" as="alternateBounds" />
          </mxGeometry>
        </mxCell>
        <mxCell id="e0r5O9GiikNs2WocUQRt-39" value="imagem_url TEXT NOT NULL" style="shape=partialRectangle;connectable=0;fillColor=none;top=0;left=0;bottom=0;right=0;align=left;spacingLeft=6;overflow=hidden;whiteSpace=wrap;html=1;" vertex="1" parent="e0r5O9GiikNs2WocUQRt-37">
          <mxGeometry x="30" width="150" height="30" as="geometry">
            <mxRectangle width="150" height="30" as="alternateBounds" />
          </mxGeometry>
        </mxCell>
        <mxCell id="e0r5O9GiikNs2WocUQRt-40" value="Pagamento" style="shape=table;startSize=30;container=1;collapsible=1;childLayout=tableLayout;fixedRows=1;rowLines=0;fontStyle=1;align=center;resizeLast=1;html=1;fillColor=#1ba1e2;fontColor=#ffffff;strokeColor=#006EAF;" vertex="1" parent="e0r5O9GiikNs2WocUQRt-1">
          <mxGeometry x="610" y="30" width="180" height="190" as="geometry" />
        </mxCell>
        <mxCell id="e0r5O9GiikNs2WocUQRt-41" value="" style="shape=tableRow;horizontal=0;startSize=0;swimlaneHead=0;swimlaneBody=0;fillColor=none;collapsible=0;dropTarget=0;points=[[0,0.5],[1,0.5]];portConstraint=eastwest;top=0;left=0;right=0;bottom=1;" vertex="1" parent="e0r5O9GiikNs2WocUQRt-40">
          <mxGeometry y="30" width="180" height="30" as="geometry" />
        </mxCell>
        <mxCell id="e0r5O9GiikNs2WocUQRt-42" value="PK" style="shape=partialRectangle;connectable=0;fillColor=none;top=0;left=0;bottom=0;right=0;fontStyle=1;overflow=hidden;whiteSpace=wrap;html=1;" vertex="1" parent="e0r5O9GiikNs2WocUQRt-41">
          <mxGeometry width="30" height="30" as="geometry">
            <mxRectangle width="30" height="30" as="alternateBounds" />
          </mxGeometry>
        </mxCell>
        <mxCell id="e0r5O9GiikNs2WocUQRt-43" value="id_pagamento INT" style="shape=partialRectangle;connectable=0;fillColor=none;top=0;left=0;bottom=0;right=0;align=left;spacingLeft=6;fontStyle=5;overflow=hidden;whiteSpace=wrap;html=1;" vertex="1" parent="e0r5O9GiikNs2WocUQRt-41">
          <mxGeometry x="30" width="150" height="30" as="geometry">
            <mxRectangle width="150" height="30" as="alternateBounds" />
          </mxGeometry>
        </mxCell>
        <mxCell id="e0r5O9GiikNs2WocUQRt-44" value="" style="shape=tableRow;horizontal=0;startSize=0;swimlaneHead=0;swimlaneBody=0;fillColor=none;collapsible=0;dropTarget=0;points=[[0,0.5],[1,0.5]];portConstraint=eastwest;top=0;left=0;right=0;bottom=0;" vertex="1" parent="e0r5O9GiikNs2WocUQRt-40">
          <mxGeometry y="60" width="180" height="30" as="geometry" />
        </mxCell>
        <mxCell id="e0r5O9GiikNs2WocUQRt-45" value="FK" style="shape=partialRectangle;connectable=0;fillColor=none;top=0;left=0;bottom=0;right=0;editable=1;overflow=hidden;whiteSpace=wrap;html=1;" vertex="1" parent="e0r5O9GiikNs2WocUQRt-44">
          <mxGeometry width="30" height="30" as="geometry">
            <mxRectangle width="30" height="30" as="alternateBounds" />
          </mxGeometry>
        </mxCell>
        <mxCell id="e0r5O9GiikNs2WocUQRt-46" value="id_pedido NOT NULL" style="shape=partialRectangle;connectable=0;fillColor=none;top=0;left=0;bottom=0;right=0;align=left;spacingLeft=6;overflow=hidden;whiteSpace=wrap;html=1;" vertex="1" parent="e0r5O9GiikNs2WocUQRt-44">
          <mxGeometry x="30" width="150" height="30" as="geometry">
            <mxRectangle width="150" height="30" as="alternateBounds" />
          </mxGeometry>
        </mxCell>
        <mxCell id="e0r5O9GiikNs2WocUQRt-47" value="" style="shape=tableRow;horizontal=0;startSize=0;swimlaneHead=0;swimlaneBody=0;fillColor=none;collapsible=0;dropTarget=0;points=[[0,0.5],[1,0.5]];portConstraint=eastwest;top=0;left=0;right=0;bottom=0;" vertex="1" parent="e0r5O9GiikNs2WocUQRt-40">
          <mxGeometry y="90" width="180" height="30" as="geometry" />
        </mxCell>
        <mxCell id="e0r5O9GiikNs2WocUQRt-48" value="" style="shape=partialRectangle;connectable=0;fillColor=none;top=0;left=0;bottom=0;right=0;editable=1;overflow=hidden;whiteSpace=wrap;html=1;" vertex="1" parent="e0r5O9GiikNs2WocUQRt-47">
          <mxGeometry width="30" height="30" as="geometry">
            <mxRectangle width="30" height="30" as="alternateBounds" />
          </mxGeometry>
        </mxCell>
        <mxCell id="e0r5O9GiikNs2WocUQRt-49" value="forma_pagamento TEXT NOT NULL" style="shape=partialRectangle;connectable=0;fillColor=none;top=0;left=0;bottom=0;right=0;align=left;spacingLeft=6;overflow=hidden;whiteSpace=wrap;html=1;" vertex="1" parent="e0r5O9GiikNs2WocUQRt-47">
          <mxGeometry x="30" width="150" height="30" as="geometry">
            <mxRectangle width="150" height="30" as="alternateBounds" />
          </mxGeometry>
        </mxCell>
        <mxCell id="e0r5O9GiikNs2WocUQRt-50" value="" style="shape=tableRow;horizontal=0;startSize=0;swimlaneHead=0;swimlaneBody=0;fillColor=none;collapsible=0;dropTarget=0;points=[[0,0.5],[1,0.5]];portConstraint=eastwest;top=0;left=0;right=0;bottom=0;" vertex="1" parent="e0r5O9GiikNs2WocUQRt-40">
          <mxGeometry y="120" width="180" height="30" as="geometry" />
        </mxCell>
        <mxCell id="e0r5O9GiikNs2WocUQRt-51" value="" style="shape=partialRectangle;connectable=0;fillColor=none;top=0;left=0;bottom=0;right=0;editable=1;overflow=hidden;whiteSpace=wrap;html=1;" vertex="1" parent="e0r5O9GiikNs2WocUQRt-50">
          <mxGeometry width="30" height="30" as="geometry">
            <mxRectangle width="30" height="30" as="alternateBounds" />
          </mxGeometry>
        </mxCell>
        <mxCell id="e0r5O9GiikNs2WocUQRt-52" value="status TEXT NOT NULL" style="shape=partialRectangle;connectable=0;fillColor=none;top=0;left=0;bottom=0;right=0;align=left;spacingLeft=6;overflow=hidden;whiteSpace=wrap;html=1;" vertex="1" parent="e0r5O9GiikNs2WocUQRt-50">
          <mxGeometry x="30" width="150" height="30" as="geometry">
            <mxRectangle width="150" height="30" as="alternateBounds" />
          </mxGeometry>
        </mxCell>
        <mxCell id="e0r5O9GiikNs2WocUQRt-53" value="" style="shape=tableRow;horizontal=0;startSize=0;swimlaneHead=0;swimlaneBody=0;fillColor=none;collapsible=0;dropTarget=0;points=[[0,0.5],[1,0.5]];portConstraint=eastwest;top=0;left=0;right=0;bottom=0;" vertex="1" parent="e0r5O9GiikNs2WocUQRt-40">
          <mxGeometry y="150" width="180" height="30" as="geometry" />
        </mxCell>
        <mxCell id="e0r5O9GiikNs2WocUQRt-54" value="" style="shape=partialRectangle;connectable=0;fillColor=none;top=0;left=0;bottom=0;right=0;editable=1;overflow=hidden;whiteSpace=wrap;html=1;" vertex="1" parent="e0r5O9GiikNs2WocUQRt-53">
          <mxGeometry width="30" height="30" as="geometry">
            <mxRectangle width="30" height="30" as="alternateBounds" />
          </mxGeometry>
        </mxCell>
        <mxCell id="e0r5O9GiikNs2WocUQRt-55" value="data_pagamento DATE NOT NULL" style="shape=partialRectangle;connectable=0;fillColor=none;top=0;left=0;bottom=0;right=0;align=left;spacingLeft=6;overflow=hidden;whiteSpace=wrap;html=1;" vertex="1" parent="e0r5O9GiikNs2WocUQRt-53">
          <mxGeometry x="30" width="150" height="30" as="geometry">
            <mxRectangle width="150" height="30" as="alternateBounds" />
          </mxGeometry>
        </mxCell>
        <mxCell id="e0r5O9GiikNs2WocUQRt-56" value="Pedido" style="shape=table;startSize=30;container=1;collapsible=1;childLayout=tableLayout;fixedRows=1;rowLines=0;fontStyle=1;align=center;resizeLast=1;html=1;fillColor=#1ba1e2;fontColor=#ffffff;strokeColor=#006EAF;" vertex="1" parent="e0r5O9GiikNs2WocUQRt-1">
          <mxGeometry x="280" y="40" width="180" height="190" as="geometry" />
        </mxCell>
        <mxCell id="e0r5O9GiikNs2WocUQRt-57" value="" style="shape=tableRow;horizontal=0;startSize=0;swimlaneHead=0;swimlaneBody=0;fillColor=none;collapsible=0;dropTarget=0;points=[[0,0.5],[1,0.5]];portConstraint=eastwest;top=0;left=0;right=0;bottom=1;" vertex="1" parent="e0r5O9GiikNs2WocUQRt-56">
          <mxGeometry y="30" width="180" height="30" as="geometry" />
        </mxCell>
        <mxCell id="e0r5O9GiikNs2WocUQRt-58" value="PK" style="shape=partialRectangle;connectable=0;fillColor=none;top=0;left=0;bottom=0;right=0;fontStyle=1;overflow=hidden;whiteSpace=wrap;html=1;" vertex="1" parent="e0r5O9GiikNs2WocUQRt-57">
          <mxGeometry width="30" height="30" as="geometry">
            <mxRectangle width="30" height="30" as="alternateBounds" />
          </mxGeometry>
        </mxCell>
        <mxCell id="e0r5O9GiikNs2WocUQRt-59" value="id_pedido INT" style="shape=partialRectangle;connectable=0;fillColor=none;top=0;left=0;bottom=0;right=0;align=left;spacingLeft=6;fontStyle=5;overflow=hidden;whiteSpace=wrap;html=1;" vertex="1" parent="e0r5O9GiikNs2WocUQRt-57">
          <mxGeometry x="30" width="150" height="30" as="geometry">
            <mxRectangle width="150" height="30" as="alternateBounds" />
          </mxGeometry>
        </mxCell>
        <mxCell id="e0r5O9GiikNs2WocUQRt-60" value="" style="shape=tableRow;horizontal=0;startSize=0;swimlaneHead=0;swimlaneBody=0;fillColor=none;collapsible=0;dropTarget=0;points=[[0,0.5],[1,0.5]];portConstraint=eastwest;top=0;left=0;right=0;bottom=0;" vertex="1" parent="e0r5O9GiikNs2WocUQRt-56">
          <mxGeometry y="60" width="180" height="30" as="geometry" />
        </mxCell>
        <mxCell id="e0r5O9GiikNs2WocUQRt-61" value="" style="shape=partialRectangle;connectable=0;fillColor=none;top=0;left=0;bottom=0;right=0;editable=1;overflow=hidden;whiteSpace=wrap;html=1;" vertex="1" parent="e0r5O9GiikNs2WocUQRt-60">
          <mxGeometry width="30" height="30" as="geometry">
            <mxRectangle width="30" height="30" as="alternateBounds" />
          </mxGeometry>
        </mxCell>
        <mxCell id="e0r5O9GiikNs2WocUQRt-62" value="data_pedido TIMESTAMPZ NOT NULL" style="shape=partialRectangle;connectable=0;fillColor=none;top=0;left=0;bottom=0;right=0;align=left;spacingLeft=6;overflow=hidden;whiteSpace=wrap;html=1;" vertex="1" parent="e0r5O9GiikNs2WocUQRt-60">
          <mxGeometry x="30" width="150" height="30" as="geometry">
            <mxRectangle width="150" height="30" as="alternateBounds" />
          </mxGeometry>
        </mxCell>
        <mxCell id="e0r5O9GiikNs2WocUQRt-63" value="" style="shape=tableRow;horizontal=0;startSize=0;swimlaneHead=0;swimlaneBody=0;fillColor=none;collapsible=0;dropTarget=0;points=[[0,0.5],[1,0.5]];portConstraint=eastwest;top=0;left=0;right=0;bottom=0;" vertex="1" parent="e0r5O9GiikNs2WocUQRt-56">
          <mxGeometry y="90" width="180" height="30" as="geometry" />
        </mxCell>
        <mxCell id="e0r5O9GiikNs2WocUQRt-64" value="" style="shape=partialRectangle;connectable=0;fillColor=none;top=0;left=0;bottom=0;right=0;editable=1;overflow=hidden;whiteSpace=wrap;html=1;" vertex="1" parent="e0r5O9GiikNs2WocUQRt-63">
          <mxGeometry width="30" height="30" as="geometry">
            <mxRectangle width="30" height="30" as="alternateBounds" />
          </mxGeometry>
        </mxCell>
        <mxCell id="e0r5O9GiikNs2WocUQRt-65" value="valor_total NUMERIC(18,4) NOT NULL" style="shape=partialRectangle;connectable=0;fillColor=none;top=0;left=0;bottom=0;right=0;align=left;spacingLeft=6;overflow=hidden;whiteSpace=wrap;html=1;" vertex="1" parent="e0r5O9GiikNs2WocUQRt-63">
          <mxGeometry x="30" width="150" height="30" as="geometry">
            <mxRectangle width="150" height="30" as="alternateBounds" />
          </mxGeometry>
        </mxCell>
        <mxCell id="e0r5O9GiikNs2WocUQRt-66" value="" style="shape=tableRow;horizontal=0;startSize=0;swimlaneHead=0;swimlaneBody=0;fillColor=none;collapsible=0;dropTarget=0;points=[[0,0.5],[1,0.5]];portConstraint=eastwest;top=0;left=0;right=0;bottom=0;" vertex="1" parent="e0r5O9GiikNs2WocUQRt-56">
          <mxGeometry y="120" width="180" height="30" as="geometry" />
        </mxCell>
        <mxCell id="e0r5O9GiikNs2WocUQRt-67" value="" style="shape=partialRectangle;connectable=0;fillColor=none;top=0;left=0;bottom=0;right=0;editable=1;overflow=hidden;whiteSpace=wrap;html=1;" vertex="1" parent="e0r5O9GiikNs2WocUQRt-66">
          <mxGeometry width="30" height="30" as="geometry">
            <mxRectangle width="30" height="30" as="alternateBounds" />
          </mxGeometry>
        </mxCell>
        <mxCell id="e0r5O9GiikNs2WocUQRt-68" value="status TEXT" style="shape=partialRectangle;connectable=0;fillColor=none;top=0;left=0;bottom=0;right=0;align=left;spacingLeft=6;overflow=hidden;whiteSpace=wrap;html=1;" vertex="1" parent="e0r5O9GiikNs2WocUQRt-66">
          <mxGeometry x="30" width="150" height="30" as="geometry">
            <mxRectangle width="150" height="30" as="alternateBounds" />
          </mxGeometry>
        </mxCell>
        <mxCell id="e0r5O9GiikNs2WocUQRt-69" value="" style="shape=tableRow;horizontal=0;startSize=0;swimlaneHead=0;swimlaneBody=0;fillColor=none;collapsible=0;dropTarget=0;points=[[0,0.5],[1,0.5]];portConstraint=eastwest;top=0;left=0;right=0;bottom=0;" vertex="1" parent="e0r5O9GiikNs2WocUQRt-56">
          <mxGeometry y="150" width="180" height="30" as="geometry" />
        </mxCell>
        <mxCell id="e0r5O9GiikNs2WocUQRt-70" value="FK" style="shape=partialRectangle;connectable=0;fillColor=none;top=0;left=0;bottom=0;right=0;editable=1;overflow=hidden;whiteSpace=wrap;html=1;" vertex="1" parent="e0r5O9GiikNs2WocUQRt-69">
          <mxGeometry width="30" height="30" as="geometry">
            <mxRectangle width="30" height="30" as="alternateBounds" />
          </mxGeometry>
        </mxCell>
        <mxCell id="e0r5O9GiikNs2WocUQRt-71" value="id_cliente NOT NULL" style="shape=partialRectangle;connectable=0;fillColor=none;top=0;left=0;bottom=0;right=0;align=left;spacingLeft=6;overflow=hidden;whiteSpace=wrap;html=1;" vertex="1" parent="e0r5O9GiikNs2WocUQRt-69">
          <mxGeometry x="30" width="150" height="30" as="geometry">
            <mxRectangle width="150" height="30" as="alternateBounds" />
          </mxGeometry>
        </mxCell>
        <mxCell id="e0r5O9GiikNs2WocUQRt-72" value="Item_do_pedido" style="shape=table;startSize=30;container=1;collapsible=1;childLayout=tableLayout;fixedRows=1;rowLines=0;fontStyle=1;align=center;resizeLast=1;html=1;fillColor=#1ba1e2;fontColor=#ffffff;strokeColor=#006EAF;" vertex="1" parent="e0r5O9GiikNs2WocUQRt-1">
          <mxGeometry x="370" y="300" width="180" height="160" as="geometry" />
        </mxCell>
        <mxCell id="e0r5O9GiikNs2WocUQRt-73" value="" style="shape=tableRow;horizontal=0;startSize=0;swimlaneHead=0;swimlaneBody=0;fillColor=none;collapsible=0;dropTarget=0;points=[[0,0.5],[1,0.5]];portConstraint=eastwest;top=0;left=0;right=0;bottom=1;" vertex="1" parent="e0r5O9GiikNs2WocUQRt-72">
          <mxGeometry y="30" width="180" height="30" as="geometry" />
        </mxCell>
        <mxCell id="e0r5O9GiikNs2WocUQRt-74" value="PK" style="shape=partialRectangle;connectable=0;fillColor=none;top=0;left=0;bottom=0;right=0;fontStyle=1;overflow=hidden;whiteSpace=wrap;html=1;" vertex="1" parent="e0r5O9GiikNs2WocUQRt-73">
          <mxGeometry width="30" height="30" as="geometry">
            <mxRectangle width="30" height="30" as="alternateBounds" />
          </mxGeometry>
        </mxCell>
        <mxCell id="e0r5O9GiikNs2WocUQRt-75" value="id_item INT" style="shape=partialRectangle;connectable=0;fillColor=none;top=0;left=0;bottom=0;right=0;align=left;spacingLeft=6;fontStyle=5;overflow=hidden;whiteSpace=wrap;html=1;" vertex="1" parent="e0r5O9GiikNs2WocUQRt-73">
          <mxGeometry x="30" width="150" height="30" as="geometry">
            <mxRectangle width="150" height="30" as="alternateBounds" />
          </mxGeometry>
        </mxCell>
        <mxCell id="e0r5O9GiikNs2WocUQRt-76" value="" style="shape=tableRow;horizontal=0;startSize=0;swimlaneHead=0;swimlaneBody=0;fillColor=none;collapsible=0;dropTarget=0;points=[[0,0.5],[1,0.5]];portConstraint=eastwest;top=0;left=0;right=0;bottom=0;" vertex="1" parent="e0r5O9GiikNs2WocUQRt-72">
          <mxGeometry y="60" width="180" height="30" as="geometry" />
        </mxCell>
        <mxCell id="e0r5O9GiikNs2WocUQRt-77" value="FK" style="shape=partialRectangle;connectable=0;fillColor=none;top=0;left=0;bottom=0;right=0;editable=1;overflow=hidden;whiteSpace=wrap;html=1;" vertex="1" parent="e0r5O9GiikNs2WocUQRt-76">
          <mxGeometry width="30" height="30" as="geometry">
            <mxRectangle width="30" height="30" as="alternateBounds" />
          </mxGeometry>
        </mxCell>
        <mxCell id="e0r5O9GiikNs2WocUQRt-78" value="id_pedido NOT NULL" style="shape=partialRectangle;connectable=0;fillColor=none;top=0;left=0;bottom=0;right=0;align=left;spacingLeft=6;overflow=hidden;whiteSpace=wrap;html=1;" vertex="1" parent="e0r5O9GiikNs2WocUQRt-76">
          <mxGeometry x="30" width="150" height="30" as="geometry">
            <mxRectangle width="150" height="30" as="alternateBounds" />
          </mxGeometry>
        </mxCell>
        <mxCell id="e0r5O9GiikNs2WocUQRt-79" value="" style="shape=tableRow;horizontal=0;startSize=0;swimlaneHead=0;swimlaneBody=0;fillColor=none;collapsible=0;dropTarget=0;points=[[0,0.5],[1,0.5]];portConstraint=eastwest;top=0;left=0;right=0;bottom=0;" vertex="1" parent="e0r5O9GiikNs2WocUQRt-72">
          <mxGeometry y="90" width="180" height="30" as="geometry" />
        </mxCell>
        <mxCell id="e0r5O9GiikNs2WocUQRt-80" value="FK" style="shape=partialRectangle;connectable=0;fillColor=none;top=0;left=0;bottom=0;right=0;editable=1;overflow=hidden;whiteSpace=wrap;html=1;" vertex="1" parent="e0r5O9GiikNs2WocUQRt-79">
          <mxGeometry width="30" height="30" as="geometry">
            <mxRectangle width="30" height="30" as="alternateBounds" />
          </mxGeometry>
        </mxCell>
        <mxCell id="e0r5O9GiikNs2WocUQRt-81" value="id_produto NOT NULL" style="shape=partialRectangle;connectable=0;fillColor=none;top=0;left=0;bottom=0;right=0;align=left;spacingLeft=6;overflow=hidden;whiteSpace=wrap;html=1;" vertex="1" parent="e0r5O9GiikNs2WocUQRt-79">
          <mxGeometry x="30" width="150" height="30" as="geometry">
            <mxRectangle width="150" height="30" as="alternateBounds" />
          </mxGeometry>
        </mxCell>
        <mxCell id="e0r5O9GiikNs2WocUQRt-82" value="" style="shape=tableRow;horizontal=0;startSize=0;swimlaneHead=0;swimlaneBody=0;fillColor=none;collapsible=0;dropTarget=0;points=[[0,0.5],[1,0.5]];portConstraint=eastwest;top=0;left=0;right=0;bottom=0;" vertex="1" parent="e0r5O9GiikNs2WocUQRt-72">
          <mxGeometry y="120" width="180" height="30" as="geometry" />
        </mxCell>
        <mxCell id="e0r5O9GiikNs2WocUQRt-83" value="" style="shape=partialRectangle;connectable=0;fillColor=none;top=0;left=0;bottom=0;right=0;editable=1;overflow=hidden;whiteSpace=wrap;html=1;" vertex="1" parent="e0r5O9GiikNs2WocUQRt-82">
          <mxGeometry width="30" height="30" as="geometry">
            <mxRectangle width="30" height="30" as="alternateBounds" />
          </mxGeometry>
        </mxCell>
        <mxCell id="e0r5O9GiikNs2WocUQRt-84" value="quantidade INT NOT NULL" style="shape=partialRectangle;connectable=0;fillColor=none;top=0;left=0;bottom=0;right=0;align=left;spacingLeft=6;overflow=hidden;whiteSpace=wrap;html=1;" vertex="1" parent="e0r5O9GiikNs2WocUQRt-82">
          <mxGeometry x="30" width="150" height="30" as="geometry">
            <mxRectangle width="150" height="30" as="alternateBounds" />
          </mxGeometry>
        </mxCell>
        <mxCell id="e0r5O9GiikNs2WocUQRt-85" value="" style="edgeStyle=entityRelationEdgeStyle;fontSize=12;html=1;endArrow=ERoneToMany;rounded=0;exitX=1;exitY=0.5;exitDx=0;exitDy=0;entryX=0;entryY=0.5;entryDx=0;entryDy=0;" edge="1" parent="e0r5O9GiikNs2WocUQRt-1" source="e0r5O9GiikNs2WocUQRt-3" target="e0r5O9GiikNs2WocUQRt-69">
          <mxGeometry width="100" height="100" relative="1" as="geometry">
            <mxPoint x="270" y="200" as="sourcePoint" />
            <mxPoint x="370" y="100" as="targetPoint" />
          </mxGeometry>
        </mxCell>
        <mxCell id="e0r5O9GiikNs2WocUQRt-86" value="" style="edgeStyle=entityRelationEdgeStyle;fontSize=12;html=1;endArrow=ERoneToMany;rounded=0;exitX=1;exitY=0.5;exitDx=0;exitDy=0;entryX=0;entryY=0.5;entryDx=0;entryDy=0;" edge="1" parent="e0r5O9GiikNs2WocUQRt-1" source="e0r5O9GiikNs2WocUQRt-22" target="e0r5O9GiikNs2WocUQRt-76">
          <mxGeometry width="100" height="100" relative="1" as="geometry">
            <mxPoint x="605.99" y="577.52" as="sourcePoint" />
            <mxPoint x="430" y="380" as="targetPoint" />
            <Array as="points">
              <mxPoint x="745.99" y="512.52" />
            </Array>
          </mxGeometry>
        </mxCell>
        <mxCell id="e0r5O9GiikNs2WocUQRt-87" value="" style="edgeStyle=entityRelationEdgeStyle;fontSize=12;html=1;endArrow=ERoneToMany;rounded=0;exitX=1;exitY=0.5;exitDx=0;exitDy=0;" edge="1" parent="e0r5O9GiikNs2WocUQRt-1" source="e0r5O9GiikNs2WocUQRt-57" target="e0r5O9GiikNs2WocUQRt-76">
          <mxGeometry width="100" height="100" relative="1" as="geometry">
            <mxPoint x="727" y="340" as="sourcePoint" />
            <mxPoint x="827" y="240" as="targetPoint" />
          </mxGeometry>
        </mxCell>
        <mxCell id="e0r5O9GiikNs2WocUQRt-88" value="" style="edgeStyle=entityRelationEdgeStyle;fontSize=12;html=1;endArrow=ERzeroToOne;startArrow=ERmandOne;rounded=0;entryX=0;entryY=0.5;entryDx=0;entryDy=0;exitX=0.985;exitY=0.186;exitDx=0;exitDy=0;exitPerimeter=0;" edge="1" parent="e0r5O9GiikNs2WocUQRt-1" source="e0r5O9GiikNs2WocUQRt-57" target="e0r5O9GiikNs2WocUQRt-41">
          <mxGeometry width="100" height="100" relative="1" as="geometry">
            <mxPoint x="610" y="70" as="sourcePoint" />
            <mxPoint x="841.6200000000001" y="105.86999999999995" as="targetPoint" />
            <Array as="points">
              <mxPoint x="650" y="40" />
            </Array>
          </mxGeometry>
        </mxCell>
      </root>
    </mxGraphModel>
  </diagram>
</mxfile>
